<?xml version="1.0" standalone="no"?>
<!DOCTYPE svg PUBLIC "-//W3C//DTD SVG 20010904//EN"
 "http://www.w3.org/TR/2001/REC-SVG-20010904/DTD/svg10.dtd">
<svg version="1.0" xmlns="http://www.w3.org/2000/svg"
 width="200.000000pt" height="200.000000pt" viewBox="0 0 200.000000 200.000000"
 preserveAspectRatio="xMidYMid meet">
<metadata>
Created by potrace 1.11, written by Peter Selinger 2001-2013
</metadata><g><rect x="0" y="0" width="200" height="200" fill="#ffffff" />
<g transform="translate(0.000000,200.000000) scale(0.013193,-0.013193)"
fill="#050505" stroke="none">
<path d="M1097 14410 c-190 -23 -278 -81 -317 -206 -36 -116 -42 -236 -38
-696 4 -407 6 -438 27 -513 38 -140 86 -188 226 -227 78 -22 93 -22 585 -22
492 0 507 0 585 22 140 39 188 87 227 227 22 78 22 93 22 585 0 492 0 507 -22
585 -39 140 -87 188 -227 227 -76 20 -102 22 -540 24 -253 1 -491 -2 -528 -6z
m797 -240 c210 -20 256 -66 276 -276 13 -140 13 -488 0 -628 -15 -156 -46
-214 -132 -250 -115 -48 -801 -48 -916 0 -86 36 -117 94 -132 250 -13 140 -13
488 0 628 20 205 68 257 260 275 125 12 519 13 644 1z"/>
<path d="M1315 13922 c-41 -14 -54 -24 -70 -57 -18 -37 -20 -60 -20 -285 0
-225 2 -248 20 -285 32 -65 75 -74 335 -74 260 0 303 9 335 74 18 37 20 60 20
285 0 225 -2 248 -20 285 -32 65 -75 74 -335 74 -176 0 -224 -3 -265 -17z"/>
<path d="M2693 14412 c-25 -16 -33 -69 -33 -221 0 -168 9 -214 44 -234 13 -7
87 -14 192 -17 187 -6 217 -15 231 -68 5 -15 8 -104 8 -199 0 -210 2 -206
-114 -211 -70 -4 -81 -2 -100 17 -18 18 -21 33 -21 105 0 112 -5 116 -120 116
-116 0 -120 -4 -120 -120 0 -115 4 -120 116 -120 114 0 124 -10 124 -122 0
-46 5 -90 10 -98 7 -11 35 -17 100 -20 131 -8 125 2 125 -240 0 -241 4 -233
-114 -238 -70 -4 -81 -2 -100 17 -18 18 -21 33 -21 105 0 111 -5 116 -115 116
-123 0 -122 2 -128 -245 -2 -96 -8 -158 -16 -173 -26 -48 -65 -55 -366 -62
-154 -3 -288 -10 -298 -14 -28 -13 -37 -40 -37 -115 0 -99 -13 -111 -120 -111
-108 0 -120 11 -120 118 0 42 -4 82 -8 89 -16 25 -69 33 -232 33 -163 0 -216
-8 -232 -33 -4 -7 -8 -47 -8 -89 0 -107 -12 -118 -120 -118 -110 0 -120 10
-120 124 0 112 -5 116 -120 116 -116 0 -120 -4 -120 -120 0 -115 4 -120 116
-120 114 0 124 -10 124 -120 0 -110 -10 -120 -124 -120 -111 0 -116 -5 -116
-118 0 -48 5 -94 10 -102 7 -11 35 -17 100 -20 128 -8 124 -1 128 -213 4 -267
4 -267 112 -267 123 0 128 -13 129 -370 2 -238 8 -281 45 -319 25 -25 29 -26
211 -32 224 -7 218 -4 223 -118 4 -70 2 -81 -17 -100 -18 -18 -33 -21 -105
-21 -111 0 -116 -5 -116 -116 0 -114 -10 -124 -120 -124 -109 0 -120 11 -120
123 0 45 -5 89 -10 97 -7 11 -35 17 -100 20 -128 8 -124 1 -128 213 -4 270 -3
267 -120 267 -87 0 -96 -4 -111 -43 -14 -37 -14 -357 0 -394 15 -39 24 -43
112 -43 106 0 117 -12 117 -120 0 -110 -10 -120 -124 -120 -112 0 -116 -5
-116 -120 0 -115 4 -120 116 -120 114 0 124 -10 124 -120 0 -109 -11 -120
-119 -120 -121 0 -125 -8 -119 -254 3 -152 4 -156 29 -181 38 -38 81 -44 319
-46 359 -1 370 -5 370 -133 0 -39 5 -78 10 -86 7 -11 35 -17 100 -20 131 -8
125 2 125 -240 0 -241 4 -233 -114 -238 -70 -4 -81 -2 -100 17 -18 18 -21 33
-21 105 0 111 -5 116 -115 116 -125 0 -123 5 -127 -267 -4 -210 -2 -206 -117
-211 -70 -4 -81 -2 -100 17 -18 18 -21 33 -21 105 0 111 -5 116 -115 116 -126
0 -129 -6 -123 -254 3 -152 4 -156 29 -181 38 -38 81 -44 319 -46 359 -1 375
-7 368 -131 -6 -102 -5 -102 -211 -106 -270 -4 -267 -3 -267 -121 0 -107 -7
-115 -111 -121 -132 -8 -124 19 -124 -448 0 -415 2 -437 51 -483 24 -23 33
-24 205 -30 214 -6 211 -5 216 -106 6 -100 9 -110 44 -122 41 -14 358 -15 396
0 39 15 43 24 43 116 0 108 -5 113 -116 113 -113 0 -124 10 -124 119 0 73 -5
91 -33 112 -1 1 -86 5 -188 8 -203 7 -231 15 -246 69 -5 15 -8 104 -8 199 0
210 -2 206 114 211 70 4 81 2 100 -17 18 -18 21 -33 21 -105 0 -111 5 -116
115 -116 125 0 123 -5 127 267 4 206 4 205 106 211 124 7 130 -9 131 -368 2
-238 8 -281 45 -319 25 -25 29 -26 211 -32 224 -7 218 -4 223 -118 5 -106 -8
-121 -109 -121 -86 0 -105 -9 -119 -58 -13 -49 -13 -555 0 -604 14 -49 33 -58
119 -58 100 0 111 -13 111 -124 0 -111 5 -116 116 -116 114 0 124 -10 124
-120 0 -110 -10 -120 -124 -120 -112 0 -116 -5 -116 -120 0 -115 4 -120 116
-120 72 0 87 -3 105 -21 19 -19 21 -30 17 -100 -5 -116 -1 -114 -211 -114 -95
0 -184 3 -199 8 -54 15 -62 43 -69 246 -3 102 -7 187 -8 188 -21 28 -39 33
-111 33 -119 0 -118 3 -122 -267 -4 -212 0 -205 -128 -213 -65 -3 -93 -9 -100
-20 -5 -8 -10 -54 -10 -102 0 -113 5 -118 116 -118 114 0 124 -10 124 -120 0
-110 -10 -120 -124 -120 -112 0 -116 -5 -116 -120 0 -116 4 -120 120 -120 115
0 120 4 120 116 0 114 10 124 120 124 109 0 120 -11 120 -119 0 -120 -4 -119
267 -123 143 -3 176 -6 189 -20 19 -19 29 -92 20 -143 -13 -66 -24 -68 -488
-74 -490 -7 -460 1 -468 -130 -6 -104 -14 -111 -121 -111 -118 0 -117 3 -121
-267 -4 -210 -2 -206 -117 -211 -70 -4 -81 -2 -100 17 -18 18 -21 33 -21 105
0 111 -5 116 -113 116 -45 0 -87 -4 -94 -8 -25 -16 -33 -68 -33 -210 0 -181 9
-206 85 -237 48 -19 72 -20 540 -20 605 0 568 -9 578 138 6 90 7 91 210 95
270 4 267 3 267 122 0 119 3 118 -267 122 -206 4 -205 4 -211 106 -7 124 9
130 368 131 238 2 281 8 319 46 25 25 26 29 29 181 6 246 2 254 -119 254 -109
0 -119 11 -119 124 0 111 -5 116 -116 116 -114 0 -124 10 -124 120 0 110 10
120 124 120 111 0 116 5 116 116 0 114 10 124 120 124 109 0 120 -11 120 -122
0 -46 5 -90 10 -98 7 -11 35 -17 100 -20 128 -8 124 -1 128 -213 4 -271 2
-267 125 -267 45 0 89 5 97 10 11 7 17 35 20 100 4 66 10 95 23 107 14 14 47
18 214 23 109 4 206 10 216 14 20 10 25 28 30 119 5 101 1 100 224 107 118 3
196 10 209 17 35 20 44 66 44 223 0 157 -9 203 -44 223 -13 7 -91 14 -209 17
-226 7 -220 4 -225 119 -4 70 -2 81 17 100 18 18 33 21 105 21 112 0 116 5
116 120 0 116 -4 120 -118 120 -48 0 -94 -5 -102 -10 -11 -7 -17 -35 -20 -100
-8 -131 2 -125 -240 -125 -241 0 -233 -4 -238 114 -4 70 -2 81 17 100 18 18
33 21 105 21 112 0 116 5 116 120 0 116 -4 120 -120 120 -115 0 -120 -4 -120
-116 0 -113 -10 -124 -119 -124 -120 0 -119 4 -123 -267 -4 -206 -4 -205 -106
-211 -124 -7 -130 9 -131 368 -2 238 -8 281 -45 319 -25 25 -29 26 -211 32
-153 5 -189 9 -202 22 -24 24 -30 130 -9 161 31 47 80 51 706 51 735 0 720 3
720 -137 0 -91 8 -98 120 -98 115 0 120 4 120 116 0 114 10 124 120 124 110 0
120 -10 120 -124 0 -111 5 -116 116 -116 114 0 124 -10 124 -122 0 -46 5 -90
10 -98 7 -11 35 -17 100 -20 131 -8 125 2 125 -240 0 -242 6 -232 -125 -240
-65 -3 -93 -9 -100 -20 -5 -8 -10 -54 -10 -102 0 -114 4 -118 120 -118 115 0
120 4 120 116 0 114 10 124 124 124 111 0 116 5 116 116 0 72 3 87 21 105 19
19 30 21 100 17 115 -5 113 -1 117 -211 4 -271 3 -267 123 -267 67 0 82 -3
100 -21 19 -19 21 -30 17 -100 -5 -115 -1 -113 -211 -117 -270 -4 -267 -3
-267 -120 0 -87 4 -96 43 -111 37 -14 357 -14 394 0 39 15 43 24 43 112 0 107
11 117 124 117 112 0 116 5 116 120 0 115 -4 120 -116 120 -111 0 -124 11
-124 110 0 102 16 116 145 125 155 12 463 1 507 -18 59 -25 63 -41 63 -239 0
-212 1 -210 -102 -215 -100 -6 -110 -9 -122 -44 -14 -41 -15 -358 0 -396 15
-39 24 -43 112 -43 65 0 80 -3 98 -21 19 -19 21 -30 17 -100 -5 -118 3 -114
-238 -114 -239 0 -231 -3 -239 111 -5 70 -9 79 -34 98 -28 21 -37 21 -447 21
-410 0 -419 0 -447 -21 -26 -20 -28 -26 -31 -100 -1 -43 2 -86 8 -94 7 -11 35
-17 100 -20 128 -8 124 -1 128 -213 4 -270 3 -267 122 -267 72 0 90 5 111 33
1 1 5 86 8 188 9 261 3 254 241 254 238 0 232 7 241 -254 3 -102 7 -187 8
-188 21 -28 38 -33 116 -33 110 0 115 5 115 116 0 114 10 124 124 124 111 0
116 5 116 116 0 72 3 87 21 105 19 19 30 21 100 17 115 -5 112 1 119 -225 4
-104 10 -196 14 -206 16 -35 48 -41 239 -47 226 -7 220 -4 225 -119 4 -70 2
-81 -17 -100 -18 -18 -33 -21 -105 -21 -108 0 -116 -7 -116 -98 0 -80 -15
-106 -68 -123 -24 -7 -212 -14 -542 -18 -525 -8 -559 -11 -580 -51 -6 -10 -10
-50 -10 -89 0 -94 8 -101 116 -101 114 0 124 -10 124 -120 0 -110 -10 -120
-124 -120 -111 0 -116 -5 -116 -116 0 -114 -10 -124 -124 -124 -111 0 -116 -5
-116 -116 0 -114 -10 -124 -120 -124 -109 0 -120 11 -120 123 0 45 -5 89 -10
97 -7 11 -35 17 -100 20 -131 8 -125 -2 -125 240 0 242 -6 232 125 240 65 3
93 9 100 20 5 8 10 52 10 98 0 112 10 122 124 122 112 0 116 5 116 120 0 116
-4 120 -120 120 -113 0 -120 -6 -120 -105 0 -130 -8 -133 -390 -134 -228 -1
-301 -9 -317 -34 -4 -7 -10 -47 -14 -90 -8 -116 0 -112 -239 -112 -242 0 -232
-6 -240 125 -3 65 -9 93 -20 100 -8 5 -52 10 -97 10 -113 0 -123 10 -123 124
0 112 -5 116 -120 116 -115 0 -120 -4 -120 -116 0 -114 -10 -124 -124 -124
-111 0 -116 -5 -116 -116 0 -114 -10 -124 -120 -124 -108 0 -120 11 -120 118
0 87 -4 96 -43 111 -37 14 -357 14 -394 0 -39 -15 -43 -24 -43 -111 0 -115 -1
-115 245 -121 96 -2 158 -8 173 -16 48 -26 55 -65 62 -366 3 -154 10 -288 14
-298 13 -28 40 -37 115 -37 109 0 109 0 113 267 4 206 3 205 105 210 91 5 109
10 119 30 4 10 10 107 14 216 7 237 3 230 119 235 70 4 81 2 100 -17 18 -18
21 -33 21 -105 0 -111 5 -116 116 -116 114 0 124 -10 124 -124 0 -109 6 -116
106 -116 107 0 119 -14 129 -145 4 -53 5 -170 3 -259 -4 -135 -8 -169 -25
-208 -42 -92 -78 -99 -608 -108 -588 -9 -565 1 -565 -262 0 -142 8 -194 33
-210 7 -4 47 -8 90 -8 106 0 117 -12 117 -120 0 -110 -10 -120 -124 -120 -112
0 -116 -5 -116 -120 0 -116 4 -120 120 -120 115 0 120 4 120 116 0 114 10 124
120 124 108 0 120 -11 120 -117 0 -43 4 -83 8 -90 16 -25 69 -33 232 -33 163
0 216 8 232 33 4 7 8 47 8 90 0 106 12 117 120 117 110 0 120 -10 120 -124 0
-109 6 -116 106 -116 42 0 84 5 94 10 32 17 40 77 41 320 1 380 5 390 130 390
97 0 109 -13 109 -122 0 -46 5 -90 10 -98 7 -11 35 -17 100 -20 66 -4 95 -11
107 -23 14 -14 18 -47 23 -204 3 -121 10 -196 18 -210 20 -36 74 -45 240 -41
148 3 152 4 177 29 38 38 44 81 46 319 1 360 5 370 134 370 99 0 105 7 105
120 0 115 -4 120 -116 120 -114 0 -124 10 -124 120 0 109 11 120 123 120 45 0
89 5 97 10 11 7 17 35 20 100 8 129 2 125 213 125 95 0 184 -3 199 -8 56 -15
63 -42 63 -244 0 -218 1 -215 -102 -220 -38 -2 -78 -6 -90 -9 -36 -7 -45 -61
-41 -242 3 -159 3 -162 29 -187 14 -15 43 -30 65 -35 54 -13 520 -12 566 0 21
6 41 16 45 23 4 7 10 47 14 90 8 113 4 111 212 115 271 4 267 3 267 123 0 108
11 119 120 119 110 0 120 -10 120 -124 0 -112 5 -116 120 -116 115 0 120 4
120 116 0 114 10 124 120 124 110 0 120 -10 120 -124 0 -111 5 -116 116 -116
114 0 124 -10 124 -124 0 -112 5 -116 120 -116 116 0 120 4 120 120 0 115 -4
120 -116 120 -111 0 -124 11 -124 109 0 124 15 129 360 129 345 0 360 -5 360
-129 0 -98 -13 -109 -124 -109 -112 0 -116 -5 -116 -120 0 -115 4 -120 116
-120 114 0 124 -10 124 -124 0 -111 5 -116 116 -116 114 0 124 -10 124 -124 0
-111 5 -116 113 -116 45 0 87 4 94 8 25 16 33 69 33 221 0 168 -9 214 -44 234
-13 7 -91 14 -209 17 -153 5 -190 9 -203 22 -19 19 -29 92 -20 143 13 68 25
70 471 70 424 0 457 -4 476 -52 5 -13 9 -51 9 -84 0 -85 -17 -99 -117 -99 -88
0 -97 -4 -112 -43 -14 -37 -14 -357 0 -394 15 -39 24 -43 111 -43 70 0 88 5
109 33 1 1 5 86 8 188 7 203 15 231 69 246 15 5 104 8 199 8 210 0 206 2 211
-114 4 -70 2 -81 -17 -100 -18 -18 -33 -21 -105 -21 -112 0 -116 -5 -116 -120
0 -116 4 -120 120 -120 115 0 120 4 120 116 0 113 10 124 118 124 108 0 116
-7 122 -111 8 -132 -19 -124 448 -124 415 0 437 2 483 51 23 24 24 33 30 205
4 149 8 183 22 196 12 12 42 19 107 23 65 3 93 9 100 20 5 8 10 47 10 86 0
127 14 132 360 132 346 0 360 -5 360 -132 0 -39 5 -78 10 -86 7 -11 35 -17
100 -20 66 -4 95 -11 107 -23 14 -14 18 -47 23 -204 3 -118 10 -196 17 -209 7
-12 27 -27 44 -33 42 -14 336 -14 378 0 35 12 38 22 44 122 5 102 4 101 210
105 271 4 267 2 267 125 0 45 -5 89 -10 97 -7 11 -35 17 -100 20 -131 8 -125
-2 -125 240 0 241 -4 233 114 238 70 4 81 2 100 -17 18 -18 21 -33 21 -105 0
-111 5 -116 115 -116 125 0 123 -5 127 267 4 212 2 208 118 208 116 0 113 6
120 -222 3 -118 10 -196 17 -209 20 -35 66 -44 234 -44 152 0 205 8 221 33 4
7 8 47 8 89 0 106 12 118 118 118 87 0 96 4 111 43 14 37 14 357 0 394 -15 39
-24 43 -116 43 -108 0 -113 -5 -113 -116 0 -114 -10 -124 -120 -124 -110 0
-120 10 -120 124 0 111 -5 116 -116 116 -114 0 -124 10 -124 124 0 111 -5 116
-116 116 -72 0 -87 3 -105 21 -19 19 -21 30 -17 100 5 116 -2 112 235 119 109
4 206 10 216 14 20 10 25 28 30 119 5 100 3 99 210 106 203 7 215 12 244 93
16 49 18 92 18 523 0 259 -4 487 -8 508 -13 60 -37 77 -108 77 -33 0 -69 -5
-79 -10 -32 -17 -40 -77 -41 -320 -1 -382 -6 -395 -131 -388 -102 6 -101 2
-108 225 -3 118 -10 196 -17 209 -20 35 -66 44 -234 44 -152 0 -205 -8 -221
-33 -4 -7 -8 -49 -8 -94 0 -108 5 -113 116 -113 114 0 124 -10 124 -122 0 -46
5 -90 10 -98 7 -11 35 -17 100 -20 131 -8 125 2 125 -240 0 -241 4 -233 -114
-238 -106 -5 -121 8 -121 109 0 39 -5 79 -10 89 -17 32 -77 40 -320 41 -382 1
-390 4 -390 134 0 99 -7 105 -116 105 -72 0 -87 3 -105 21 -19 19 -21 30 -17
100 5 115 -1 112 225 119 191 6 223 12 239 47 4 10 10 102 14 206 5 157 9 190
23 204 12 12 41 19 107 23 65 3 93 9 100 20 5 8 10 52 10 97 0 112 11 123 120
123 110 0 120 -10 120 -124 0 -112 5 -116 120 -116 116 0 120 4 120 120 0 115
-4 120 -116 120 -114 0 -124 10 -124 120 0 108 11 120 118 120 87 0 96 4 111
43 14 37 14 357 0 394 -15 39 -24 43 -111 43 -108 0 -118 11 -118 124 0 111
-5 116 -115 116 -78 0 -95 -5 -116 -33 -1 -1 -5 -85 -8 -187 -4 -115 -12 -193
-19 -207 -23 -41 -50 -47 -237 -53 -99 -4 -188 -10 -198 -14 -20 -10 -25 -28
-30 -119 -5 -104 0 -102 -237 -102 -237 0 -232 -2 -237 102 -5 91 -10 109 -30
119 -10 4 -99 10 -198 14 -187 6 -214 12 -237 53 -7 14 -15 92 -19 207 -3 102
-7 186 -8 187 -21 28 -39 33 -112 33 -108 0 -119 11 -119 120 0 110 10 120
124 120 107 0 116 8 116 95 0 35 4 75 9 88 18 46 49 49 483 56 490 7 460 -1
468 130 6 105 13 111 126 111 107 0 114 7 114 106 0 80 -8 107 -37 120 -10 4
-144 11 -298 14 -301 7 -340 14 -366 62 -8 15 -14 77 -16 173 -6 246 -6 245
-121 245 -87 0 -96 -4 -111 -43 -14 -37 -14 -357 0 -394 15 -39 24 -43 112
-43 65 0 80 -3 98 -21 19 -19 21 -30 17 -100 -5 -115 -1 -113 -211 -117 -271
-4 -267 -3 -267 -123 0 -108 -11 -119 -120 -119 -107 0 -120 12 -120 111 0 86
-9 105 -58 119 -49 13 -555 13 -604 0 -49 -14 -58 -33 -58 -119 0 -99 -13
-111 -120 -111 -110 0 -120 10 -120 124 0 112 -5 116 -120 116 -116 0 -120 -4
-120 -120 0 -115 4 -120 116 -120 114 0 124 -10 124 -124 0 -111 5 -116 116
-116 114 0 124 -10 124 -120 0 -107 -12 -120 -111 -120 -75 0 -102 -9 -115
-37 -4 -10 -11 -144 -14 -298 -7 -301 -13 -339 -62 -367 -17 -9 -71 -13 -200
-13 -216 0 -211 -2 -216 114 -5 106 8 121 109 121 86 0 105 9 119 58 13 49 13
555 0 604 -14 49 -33 58 -119 58 -97 0 -111 14 -111 111 0 75 -9 102 -37 115
-10 4 -144 11 -298 14 -301 7 -339 13 -367 62 -9 17 -13 71 -13 200 0 216 -2
211 114 216 70 4 81 2 100 -17 18 -18 21 -33 21 -105 0 -112 5 -116 120 -116
116 0 120 4 120 120 0 115 -4 120 -116 120 -111 0 -124 11 -124 109 0 124 15
129 360 129 340 0 360 -6 360 -120 0 -75 11 -94 58 -108 49 -13 555 -13 604 0
49 14 58 33 58 124 0 100 -7 106 -116 106 -114 0 -124 10 -124 120 0 108 11
120 118 120 87 0 96 4 111 43 14 37 14 357 0 394 -15 39 -24 43 -116 43 -108
0 -113 -5 -113 -116 0 -114 -10 -124 -120 -124 -110 0 -120 10 -120 124 0 112
-5 116 -120 116 -116 0 -120 -4 -120 -120 0 -115 4 -120 116 -120 111 0 124
-11 124 -109 0 -124 -15 -129 -360 -129 -345 0 -360 5 -360 129 0 98 13 109
124 109 111 0 116 5 116 115 0 78 -5 95 -33 116 -1 1 -86 5 -188 8 -203 7
-231 15 -246 69 -5 15 -8 104 -8 199 0 210 -2 206 114 211 70 4 81 2 100 -17
18 -18 21 -33 21 -105 0 -112 5 -116 120 -116 115 0 120 4 120 116 0 114 10
124 120 124 110 0 120 -10 120 -124 0 -112 5 -116 120 -116 116 0 120 4 120
120 0 115 -4 120 -116 120 -114 0 -124 10 -124 120 0 110 10 120 124 120 112
0 116 5 116 120 0 116 -4 120 -118 120 -48 0 -94 -5 -102 -10 -11 -7 -17 -35
-20 -100 -8 -129 -2 -125 -213 -125 -121 0 -179 4 -194 13 -37 21 -54 68 -65
176 -14 136 -5 669 12 714 15 40 42 52 121 52 85 0 99 -17 99 -117 0 -43 4
-83 8 -90 16 -25 69 -33 221 -33 168 0 214 9 234 44 7 13 14 91 17 209 7 223
6 219 108 225 125 7 130 -6 131 -388 1 -243 9 -303 41 -320 10 -5 52 -10 94
-10 98 0 106 8 106 106 0 107 14 119 145 129 54 4 176 6 271 3 250 -7 274 -24
295 -210 15 -125 6 -651 -11 -696 -15 -40 -42 -52 -121 -52 -85 0 -99 16 -99
119 0 120 4 119 -267 123 -212 4 -205 0 -213 128 -3 65 -9 93 -20 100 -8 5
-54 10 -102 10 -114 0 -118 -4 -118 -120 0 -115 4 -120 116 -120 114 0 124
-10 124 -120 0 -110 -10 -120 -124 -120 -111 0 -116 -5 -116 -113 0 -92 4
-101 43 -116 37 -14 357 -14 394 0 39 15 43 24 43 112 0 65 3 80 21 98 19 19
30 21 100 17 118 -5 114 3 114 -238 0 -239 4 -231 -112 -239 -43 -4 -83 -10
-90 -14 -7 -4 -17 -24 -23 -45 -12 -46 -13 -512 0 -566 5 -22 20 -51 35 -65
25 -25 29 -26 181 -29 248 -6 254 -3 254 123 0 110 -5 115 -116 115 -114 0
-124 10 -124 120 0 107 12 120 111 120 39 0 79 5 89 10 32 17 40 77 41 320 1
373 6 390 119 390 111 0 117 -19 120 -365 1 -255 11 -298 75 -330 36 -18 68
-20 310 -26 180 -4 277 -9 292 -17 34 -18 43 -44 43 -116 0 -94 -14 -106 -124
-106 -111 0 -116 -5 -116 -113 0 -92 4 -101 43 -116 37 -14 357 -14 394 0 39
15 43 24 43 112 0 106 12 117 120 117 109 0 120 -11 120 -122 0 -46 5 -90 10
-98 7 -11 35 -17 100 -20 131 -8 125 2 125 -240 0 -242 6 -232 -125 -240 -65
-3 -93 -9 -100 -20 -5 -8 -10 -52 -10 -97 0 -113 -10 -123 -122 -123 -46 0
-90 -5 -98 -10 -11 -7 -17 -35 -20 -100 -8 -128 -1 -124 -213 -128 -272 -4
-267 -2 -267 -127 0 -110 5 -115 116 -115 114 0 124 -10 124 -124 0 -111 5
-116 115 -116 78 0 95 5 116 33 1 1 5 85 8 187 7 192 13 219 54 242 13 7 89
14 192 18 94 4 178 10 188 14 35 16 41 48 47 239 7 226 4 220 119 225 70 4 81
2 100 -17 18 -18 21 -33 21 -105 0 -111 5 -116 113 -116 92 0 101 4 116 43 15
38 14 355 0 396 -12 35 -22 38 -122 44 -101 5 -100 1 -107 224 -6 191 -12 223
-47 239 -10 4 -95 10 -189 14 -187 6 -217 15 -231 68 -5 15 -8 104 -8 199 0
210 -2 206 114 211 70 4 81 2 100 -17 18 -18 21 -33 21 -100 0 -120 -4 -119
267 -123 212 -4 205 0 213 -128 3 -65 9 -93 20 -100 8 -5 54 -10 102 -10 114
0 118 4 118 120 0 115 -4 120 -116 120 -114 0 -124 10 -124 120 0 110 10 120
124 120 111 0 116 5 116 115 0 125 5 123 -267 127 -212 4 -208 2 -208 118 0
116 -4 114 208 118 270 4 267 3 267 122 0 72 -5 90 -33 111 -1 1 -85 5 -187 8
-115 4 -193 12 -207 19 -41 23 -47 50 -54 242 -3 102 -7 186 -8 187 -20 27
-39 33 -101 33 -124 0 -128 11 -129 390 -1 245 -9 303 -42 320 -10 6 -49 10
-86 8 -59 -3 -68 -6 -87 -31 -20 -27 -21 -43 -28 -410 -6 -400 -11 -441 -52
-482 -29 -29 -116 -40 -273 -33 -143 7 -147 9 -151 117 -4 70 -2 81 17 100 18
18 33 21 99 21 87 0 96 4 111 43 14 37 14 357 0 394 -15 39 -24 43 -116 43
-108 0 -113 -5 -113 -116 0 -114 -10 -124 -124 -124 -111 0 -116 -5 -116 -116
0 -114 -10 -124 -124 -124 -111 0 -116 -5 -116 -116 0 -72 -3 -87 -21 -105
-19 -19 -30 -21 -100 -17 -118 5 -114 -3 -114 238 0 242 -6 232 125 240 65 3
93 9 100 20 5 8 10 52 10 98 0 112 10 122 124 122 112 0 116 5 116 120 0 115
-4 120 -116 120 -114 0 -124 10 -124 120 0 110 10 120 124 120 111 0 116 5
116 115 0 125 5 123 -267 127 -207 4 -205 3 -211 107 -4 63 -2 72 20 94 22 22
38 26 123 32 54 4 178 6 275 3 295 -8 292 -3 300 -393 5 -274 10 -305 46 -319
8 -3 49 -6 89 -6 97 0 105 8 105 106 0 107 14 119 145 129 54 4 178 6 275 3
293 -8 291 -5 300 -378 6 -262 9 -277 50 -315 20 -18 36 -20 191 -20 168 0
169 0 194 26 39 38 45 81 45 329 0 247 -6 291 -44 329 -25 25 -29 26 -211 32
-226 7 -220 4 -220 119 0 116 -4 114 208 118 272 4 267 2 267 127 0 110 -5
115 -116 115 -114 0 -124 10 -124 124 0 111 -5 116 -115 116 -78 0 -95 -5
-116 -33 -1 -1 -5 -86 -8 -188 -7 -203 -15 -231 -69 -246 -15 -5 -104 -8 -199
-8 -210 0 -206 -2 -211 114 -4 70 -2 81 17 100 18 18 33 21 100 21 120 0 119
-4 123 267 4 206 3 205 105 210 100 6 110 9 122 44 14 42 14 336 0 378 -6 17
-21 37 -33 44 -13 7 -91 14 -209 17 -157 5 -190 9 -204 23 -12 12 -19 41 -23
107 -3 65 -9 93 -20 100 -8 5 -52 10 -97 10 -112 0 -123 11 -123 119 0 120 4
119 -267 123 -210 4 -206 2 -211 117 -4 70 -2 81 17 100 18 18 33 21 100 21
120 0 119 -4 123 267 4 210 2 206 117 211 70 4 81 2 100 -17 18 -18 21 -33 21
-105 0 -111 5 -116 116 -116 114 0 124 -10 124 -124 0 -112 5 -116 120 -116
115 0 120 4 120 116 0 72 3 87 21 105 19 19 30 21 100 17 115 -5 113 -1 117
-211 4 -270 3 -267 122 -267 119 0 118 -3 122 267 4 212 0 205 128 213 65 3
93 9 100 20 13 20 13 156 0 179 -5 10 -17 22 -27 27 -10 4 -144 11 -298 14
-301 7 -340 14 -366 62 -8 15 -14 77 -16 173 -6 247 -5 245 -126 245 -45 0
-89 -5 -97 -10 -11 -7 -17 -35 -20 -100 -8 -131 2 -125 -240 -125 -242 0 -232
-6 -240 125 -3 65 -9 93 -20 100 -8 5 -54 10 -102 10 -113 0 -118 -5 -118
-116 0 -111 -11 -124 -109 -124 -125 0 -129 10 -130 390 -1 243 -9 303 -41
320 -10 5 -52 10 -94 10 -100 0 -106 -7 -106 -116 0 -72 -3 -87 -21 -105 -19
-19 -30 -21 -100 -17 -118 5 -114 -3 -114 238 0 233 -1 231 92 237 93 6 103
10 121 51 15 33 17 87 17 502 0 411 -2 471 -17 520 -10 31 -28 65 -40 77 -51
46 -63 48 -302 51 -348 5 -356 2 -356 -123 0 -103 -12 -115 -120 -115 -107 0
-120 12 -120 111 0 39 -5 79 -10 89 -18 33 -76 40 -350 40 -274 0 -332 -7
-350 -40 -5 -10 -10 -52 -10 -94 0 -100 7 -106 116 -106 114 0 124 -10 124
-120 0 -110 -10 -120 -124 -120 -112 0 -116 -5 -116 -120 0 -115 4 -120 116
-120 114 0 124 -10 124 -124 0 -111 5 -116 116 -116 113 0 124 -10 124 -119 0
-120 -4 -119 267 -123 210 -4 206 -2 211 -117 4 -70 2 -81 -17 -100 -18 -18
-33 -21 -105 -21 -111 0 -116 -5 -116 -116 0 -114 -10 -124 -120 -124 -110 0
-120 10 -120 124 0 112 -5 116 -120 116 -115 0 -120 -4 -120 -116 0 -114 -10
-124 -120 -124 -110 0 -120 10 -120 124 0 112 -5 116 -120 116 -115 0 -120 -4
-120 -116 0 -72 -3 -87 -21 -105 -19 -19 -30 -21 -100 -17 -118 5 -114 -3
-114 238 0 242 -6 232 125 240 65 3 93 9 100 20 5 8 10 54 10 102 0 113 -5
118 -116 118 -114 0 -124 10 -124 124 0 111 -5 116 -116 116 -114 0 -124 10
-124 120 0 110 10 120 124 120 112 0 116 5 116 120 0 115 -4 120 -116 120
-113 0 -124 10 -124 119 0 121 -8 125 -254 119 -152 -3 -156 -4 -181 -29 -38
-38 -44 -81 -46 -319 -1 -358 -6 -370 -130 -370 -98 0 -109 13 -109 124 0 111
-5 116 -116 116 -114 0 -124 10 -124 124 0 112 -5 116 -120 116 -116 0 -120
-4 -120 -120 0 -115 4 -120 116 -120 114 0 124 -10 124 -120 0 -109 -11 -120
-122 -120 -46 0 -90 -5 -98 -10 -11 -7 -17 -35 -20 -100 -8 -131 2 -125 -240
-125 -242 0 -232 -6 -240 125 -3 65 -9 93 -20 100 -8 5 -52 10 -97 10 -113 0
-123 10 -123 124 0 111 -5 116 -116 116 -72 0 -87 3 -105 21 -19 19 -21 30
-17 100 5 115 1 113 211 117 270 4 267 3 267 120 0 42 -4 82 -8 89 -16 25 -69
33 -232 33 -163 0 -216 -8 -232 -33 -4 -7 -8 -47 -8 -89 0 -107 -12 -118 -120
-118 -110 0 -120 10 -120 124 0 112 -5 116 -120 116 -115 0 -120 -4 -120 -116
0 -113 -10 -124 -118 -124 -107 0 -116 8 -122 106 -4 68 -8 79 -30 96 -46 34
-177 40 -839 35 -514 -3 -636 -6 -681 -19 -118 -31 -123 -41 -131 -251 -7
-204 -5 -200 -118 -205 -70 -4 -81 -2 -100 17 -18 18 -21 33 -21 105 0 111 -5
116 -116 116 -114 0 -124 10 -124 124 0 111 -5 116 -118 116 -48 0 -94 -5
-102 -10 -11 -7 -17 -35 -20 -100 -8 -131 2 -125 -240 -125 -242 0 -232 -6
-240 125 -3 65 -9 93 -20 100 -8 5 -54 10 -102 10 -113 0 -118 -5 -118 -116 0
-113 -10 -124 -119 -124 -120 0 -119 4 -123 -267 -4 -206 -4 -205 -106 -211
-125 -7 -130 6 -131 388 -1 243 -9 303 -41 320 -10 5 -52 10 -94 10 -100 0
-106 -7 -106 -116 0 -114 -10 -124 -120 -124 -110 0 -120 10 -120 124 0 111
-5 116 -113 116 -45 0 -87 -4 -94 -8z m2107 -252 c17 -17 20 -33 20 -100 0
-110 -10 -120 -124 -120 -112 0 -116 -5 -116 -120 0 -115 4 -120 116 -120 114
0 124 -10 124 -124 0 -111 5 -116 116 -116 114 0 124 -10 124 -120 0 -110 -10
-120 -124 -120 -112 0 -116 -5 -116 -120 0 -115 4 -120 116 -120 114 0 124
-10 124 -124 0 -112 6 -118 113 -114 129 5 121 -24 128 466 5 288 10 417 19
440 15 40 42 52 120 52 96 0 98 4 102 267 4 210 2 206 117 211 70 4 81 2 100
-17 18 -18 21 -33 21 -98 0 -43 4 -83 8 -90 16 -25 69 -33 232 -33 163 0 216
8 232 33 4 7 8 42 8 78 0 122 16 127 360 127 347 0 360 -4 360 -133 0 -99 7
-105 120 -105 115 0 120 4 120 116 0 114 10 124 120 124 109 0 120 -11 120
-122 0 -46 5 -90 10 -98 7 -11 35 -17 100 -20 129 -8 125 -2 125 -213 0 -95
-3 -184 -8 -199 -15 -56 -42 -63 -244 -63 -223 0 -215 -5 -223 125 -3 65 -9
93 -20 100 -8 5 -52 10 -97 10 -113 0 -123 10 -123 124 0 112 -5 116 -120 116
-115 0 -120 -4 -120 -116 0 -114 -10 -124 -124 -124 -111 0 -116 -5 -116 -115
0 -123 -2 -122 240 -128 88 -2 154 -8 167 -15 36 -20 54 -67 65 -176 14 -136
5 -669 -12 -714 -15 -41 -42 -52 -125 -52 -87 0 -95 -9 -95 -116 0 -114 -10
-124 -120 -124 -108 0 -120 11 -120 118 0 42 -4 82 -8 89 -16 25 -69 33 -232
33 -163 0 -216 -8 -232 -33 -4 -7 -8 -49 -8 -94 0 -108 5 -113 116 -113 72 0
87 -3 105 -21 19 -19 21 -30 17 -100 -5 -115 -1 -113 -211 -117 -267 -4 -267
-4 -267 -113 0 -86 9 -105 58 -119 49 -13 555 -13 604 0 49 14 58 33 58 119 0
101 15 114 121 109 118 -5 114 3 114 -238 0 -239 4 -231 -112 -239 -43 -4 -83
-10 -90 -14 -26 -16 -33 -89 -33 -347 0 -274 7 -332 40 -350 10 -5 50 -10 89
-10 100 0 111 -13 111 -124 0 -111 5 -116 116 -116 114 0 124 -10 124 -124 0
-111 5 -116 116 -116 114 0 124 -10 124 -124 0 -111 5 -116 116 -116 114 0
124 -10 124 -120 0 -109 -11 -120 -120 -120 -106 0 -120 12 -120 109 0 38 -3
77 -6 85 -14 36 -45 41 -319 46 -405 9 -386 -10 -395 395 -5 274 -10 305 -46
319 -8 3 -42 6 -75 6 -69 0 -93 -17 -106 -77 -4 -21 -8 -256 -8 -523 0 -267 4
-502 8 -523 13 -63 35 -77 121 -77 100 0 106 7 106 116 0 114 10 124 120 124
67 0 83 -3 100 -20 17 -17 20 -33 20 -100 0 -110 -10 -120 -124 -120 -111 0
-116 -5 -116 -116 0 -114 -10 -124 -120 -124 -110 0 -120 10 -120 124 0 111
-5 116 -116 116 -113 0 -124 10 -124 118 0 42 -4 82 -8 89 -16 25 -69 33 -232
33 -163 0 -216 -8 -232 -33 -11 -17 -9 -169 2 -187 7 -11 35 -17 100 -20 131
-8 125 2 125 -240 0 -237 2 -232 -102 -237 -100 -6 -110 -9 -122 -44 -14 -41
-15 -358 0 -396 5 -15 16 -31 22 -35 17 -11 169 -9 187 2 11 7 17 35 20 100 8
128 1 124 213 128 263 4 267 6 267 102 0 78 12 105 52 120 23 9 152 14 440 19
490 7 461 -1 466 128 4 107 -2 113 -114 113 -114 0 -124 10 -124 120 0 109 11
120 120 120 109 0 120 -11 120 -122 0 -46 5 -90 10 -98 7 -11 35 -17 100 -20
66 -4 95 -11 107 -23 14 -14 18 -47 23 -204 3 -118 10 -196 17 -209 20 -35 66
-44 223 -44 172 0 206 9 226 56 17 41 20 335 3 383 -12 35 -22 38 -122 44
-104 5 -102 0 -102 237 0 242 -6 232 125 240 65 3 93 9 100 20 5 8 10 54 10
102 0 113 -5 118 -116 118 -71 0 -87 3 -104 20 -17 17 -20 33 -20 104 0 111
-5 116 -116 116 -114 0 -124 10 -124 123 0 45 -5 89 -10 97 -7 11 -35 17 -100
20 -128 8 -124 1 -128 213 -4 271 -3 267 -123 267 -108 0 -119 11 -119 120 0
109 11 120 120 120 110 0 120 -10 120 -124 0 -111 5 -116 115 -116 78 0 95 5
116 33 1 1 5 85 8 187 7 192 13 219 54 242 14 7 92 15 207 19 102 3 186 7 187
8 28 21 33 38 33 116 0 110 -5 115 -116 115 -113 0 -124 10 -124 118 0 42 -4
82 -8 89 -16 25 -69 33 -221 33 -168 0 -214 -9 -234 -44 -7 -13 -14 -91 -17
-209 -7 -228 -4 -222 -120 -222 -119 0 -115 -7 -115 235 0 242 -5 232 124 240
49 3 93 9 98 13 4 5 10 49 13 98 8 129 -2 124 240 124 242 0 232 6 240 -125 3
-65 9 -93 20 -100 8 -5 52 -10 98 -10 111 0 122 -11 122 -117 0 -88 4 -97 43
-112 38 -15 335 -14 377 0 51 18 60 53 60 238 0 154 -8 207 -33 223 -7 4 -47
8 -89 8 -107 0 -118 12 -118 120 0 110 10 120 124 120 112 0 116 5 116 120 0
115 -4 120 -116 120 -114 0 -124 10 -124 120 0 110 10 120 124 120 111 0 116
5 116 116 0 114 10 124 120 124 110 0 120 -10 120 -124 0 -111 5 -116 116
-116 114 0 124 -10 124 -120 0 -110 -10 -120 -124 -120 -111 0 -116 -5 -116
-115 0 -125 -5 -123 267 -127 210 -4 206 -2 211 -117 4 -70 2 -81 -17 -100
-18 -18 -33 -21 -105 -21 -111 0 -116 -5 -116 -113 0 -45 4 -87 8 -94 16 -25
69 -33 221 -33 168 0 214 9 234 44 7 13 14 91 17 209 7 223 6 219 107 224 91
5 109 10 119 30 4 10 10 107 14 216 7 237 3 230 119 235 70 4 81 2 100 -17 18
-18 21 -33 21 -103 0 -46 5 -90 10 -98 7 -11 35 -17 100 -20 128 -8 124 -1
128 -213 4 -271 3 -267 123 -267 109 0 119 -11 119 -124 0 -111 5 -116 116
-116 114 0 124 -10 124 -124 0 -112 5 -116 120 -116 113 0 120 6 120 105 0
130 8 133 390 134 243 1 303 9 320 41 5 10 10 50 10 89 0 109 0 109 -267 113
-212 4 -205 0 -213 128 -3 65 -9 93 -20 100 -8 5 -52 10 -97 10 -112 0 -123
11 -123 120 0 67 3 83 20 100 17 17 33 20 100 20 110 0 120 -10 120 -124 0
-112 5 -116 120 -116 115 0 120 4 120 116 0 114 10 124 124 124 111 0 116 5
116 116 0 114 10 124 120 124 110 0 120 -10 120 -124 0 -111 5 -116 116 -116
72 0 87 -3 105 -21 19 -19 21 -30 17 -100 -5 -115 -1 -113 -211 -117 -270 -4
-267 -3 -267 -122 0 -119 -3 -118 267 -122 208 -4 204 -2 212 -115 4 -43 10
-83 14 -90 16 -26 89 -33 347 -33 274 0 332 7 350 40 5 10 10 50 10 89 0 99
13 111 120 111 109 0 120 -11 120 -120 0 -110 -10 -120 -124 -120 -109 0 -116
-6 -116 -105 0 -129 -13 -133 -360 -133 -344 0 -360 5 -360 127 0 36 -4 71 -8
78 -16 25 -69 33 -232 33 -163 0 -216 -8 -232 -33 -11 -17 -9 -169 2 -187 7
-11 35 -17 100 -20 65 -4 95 -11 107 -23 14 -13 18 -47 22 -196 9 -266 -17
-252 471 -262 210 -4 370 -12 392 -18 84 -26 97 -59 98 -263 0 -124 9 -175 33
-190 7 -4 49 -8 94 -8 108 0 113 5 113 116 0 114 10 124 120 124 67 0 83 -3
100 -20 17 -17 20 -33 20 -100 0 -107 -12 -120 -111 -120 -39 0 -79 -5 -89
-10 -32 -17 -40 -77 -41 -320 -1 -382 -6 -395 -131 -388 -103 6 -101 1 -108
235 -4 109 -10 206 -14 216 -10 20 -28 25 -119 30 -101 5 -99 2 -106 222 -6
182 -7 186 -32 211 -14 14 -43 29 -65 34 -54 13 -520 12 -566 0 -49 -14 -58
-33 -58 -119 0 -63 6 -82 33 -102 1 -1 85 -5 187 -8 115 -4 193 -12 207 -19
41 -23 47 -50 54 -242 3 -102 7 -186 8 -187 21 -28 39 -33 112 -33 108 0 119
-11 119 -120 0 -110 -10 -120 -124 -120 -111 0 -116 -5 -116 -116 0 -114 -10
-124 -122 -124 -46 0 -90 -5 -98 -10 -11 -7 -17 -35 -20 -100 -8 -128 -1 -124
-213 -128 -270 -4 -267 -3 -267 -122 0 -119 -3 -118 267 -122 212 -4 205 0
213 -128 3 -65 9 -93 20 -100 8 -5 52 -10 98 -10 109 0 122 -12 122 -109 0
-124 -15 -129 -360 -129 -347 0 -360 4 -360 133 0 99 -7 105 -116 105 -114 0
-124 10 -124 124 0 111 -5 116 -116 116 -114 0 -124 10 -124 124 0 112 -5 116
-120 116 -115 0 -120 -4 -120 -116 0 -113 -10 -124 -119 -124 -120 0 -119 4
-123 -267 -4 -212 -2 -208 -118 -208 -119 0 -115 -7 -115 235 0 242 -6 232
125 240 65 3 93 9 100 20 11 18 13 170 2 187 -16 25 -69 33 -221 33 -168 0
-214 -9 -234 -44 -7 -13 -14 -91 -17 -209 -7 -223 -6 -219 -107 -224 -91 -5
-109 -10 -119 -30 -4 -10 -10 -107 -14 -216 -7 -237 -3 -230 -119 -235 -70 -4
-81 -2 -100 17 -18 18 -21 33 -21 105 0 112 -5 116 -120 116 -115 0 -120 -4
-120 -116 0 -114 -10 -124 -120 -124 -110 0 -120 10 -120 124 0 111 -5 116
-118 116 -48 0 -94 -5 -102 -10 -11 -7 -17 -35 -20 -100 -8 -131 2 -125 -240
-125 -242 0 -232 -6 -240 125 -3 65 -9 93 -20 100 -18 11 -170 13 -187 2 -25
-16 -33 -69 -33 -221 0 -168 9 -214 44 -234 13 -7 91 -14 209 -17 157 -5 190
-9 204 -23 12 -12 19 -41 23 -107 3 -65 9 -93 20 -100 8 -5 54 -10 102 -10
111 0 118 6 118 106 0 107 14 119 145 129 155 12 463 1 507 -18 55 -23 61 -44
65 -212 6 -246 5 -245 124 -245 108 0 119 -11 119 -118 0 -108 -7 -116 -111
-122 -132 -8 -124 24 -124 -480 0 -504 -8 -472 124 -480 104 -6 111 -14 111
-122 0 -108 -11 -118 -124 -118 -111 0 -116 -5 -116 -116 0 -114 -10 -124
-124 -124 -111 0 -116 -5 -116 -116 0 -114 -10 -124 -120 -124 -110 0 -120 10
-120 124 0 109 -6 116 -106 116 -91 0 -110 -9 -124 -58 -13 -49 -13 -555 0
-604 14 -49 33 -58 124 -58 100 0 106 7 106 116 0 114 10 124 120 124 109 0
120 -11 120 -119 0 -73 5 -91 33 -112 1 -1 86 -5 188 -8 203 -7 231 -15 246
-69 5 -15 8 -104 8 -199 0 -210 2 -206 -114 -211 -70 -4 -81 -2 -100 17 -18
18 -21 33 -21 105 0 112 -5 116 -120 116 -115 0 -120 -4 -120 -116 0 -114 -10
-124 -124 -124 -112 0 -118 -6 -114 -113 3 -75 5 -81 31 -101 28 -20 38 -21
395 -21 399 0 439 4 485 54 39 41 47 91 48 306 1 334 8 355 119 355 111 0 118
-21 118 -360 0 -347 -4 -360 -133 -360 -99 0 -105 -7 -105 -116 0 -114 -10
-124 -124 -124 -112 0 -118 -6 -114 -113 3 -75 5 -81 31 -101 28 -21 37 -21
447 -21 410 0 419 0 447 21 25 19 29 28 33 93 7 97 18 107 146 116 53 4 180 5
283 3 201 -5 248 -16 272 -59 7 -14 15 -86 18 -181 9 -244 -14 -233 513 -233
377 0 387 1 415 21 26 20 28 26 31 101 4 107 -2 113 -114 113 -114 0 -124 10
-124 120 0 109 11 120 120 120 107 0 120 -12 120 -111 0 -39 5 -79 10 -89 17
-32 77 -40 320 -41 380 -1 390 -5 390 -130 0 -98 -13 -109 -124 -109 -109 0
-116 -6 -116 -105 0 -130 -8 -133 -390 -134 -243 -1 -303 -9 -320 -41 -13 -24
-13 -160 0 -180 7 -11 35 -17 100 -20 131 -8 125 2 125 -240 0 -239 3 -231
-111 -239 -124 -9 -118 13 -125 -429 -5 -300 -10 -377 -23 -419 -31 -98 -81
-112 -401 -113 -209 0 -268 -8 -285 -40 -5 -10 -10 -50 -10 -89 0 -94 -16
-111 -99 -111 -79 0 -106 12 -121 52 -9 23 -14 152 -19 440 -7 490 1 460 -130
468 -105 6 -111 13 -111 126 0 108 -6 114 -113 114 -92 0 -101 -4 -116 -43
-15 -38 -14 -355 0 -396 12 -35 22 -38 122 -44 104 -5 102 0 102 -237 0 -241
4 -233 -114 -238 -70 -4 -81 -2 -100 17 -18 18 -21 33 -21 105 0 111 -5 116
-116 116 -111 0 -124 11 -124 111 0 39 -5 79 -10 89 -17 32 -77 40 -320 41
-380 1 -390 5 -390 130 0 98 13 109 124 109 109 0 116 6 116 106 0 42 -5 84
-10 94 -18 33 -76 40 -350 40 -258 0 -331 -7 -347 -33 -4 -7 -10 -47 -14 -90
-8 -116 0 -112 -239 -112 -241 0 -233 -4 -238 114 -4 70 -2 81 17 100 18 18
33 21 105 21 109 0 116 6 116 106 0 91 -9 110 -58 124 -49 13 -555 13 -604 0
-49 -14 -58 -33 -58 -119 0 -100 -13 -111 -124 -111 -111 0 -116 -5 -116 -116
0 -72 -3 -87 -21 -105 -19 -19 -30 -21 -100 -17 -116 5 -114 1 -114 211 0 95
3 184 8 199 14 53 44 62 231 68 174 5 206 12 222 47 4 10 10 92 14 183 4 101
11 174 19 188 25 47 67 55 331 62 135 4 256 11 270 17 14 6 35 21 46 34 46 51
49 81 49 476 0 362 -1 372 -21 400 -18 24 -29 28 -80 31 -75 4 -100 -3 -116
-31 -9 -15 -14 -105 -19 -302 -6 -301 -12 -339 -61 -367 -16 -9 -68 -13 -183
-13 -178 0 -207 8 -222 63 -5 15 -8 104 -8 199 0 211 -4 205 125 213 65 3 93
9 100 20 5 8 10 54 10 102 0 113 -5 118 -116 118 -72 0 -87 3 -105 21 -19 19
-21 30 -17 100 5 115 1 113 211 117 272 4 267 2 267 127 0 110 -5 115 -116
115 -114 0 -124 10 -124 124 0 112 -5 116 -120 116 -115 0 -120 -4 -120 -116
0 -114 -10 -124 -124 -124 -111 0 -116 -5 -116 -116 0 -72 -3 -87 -21 -105
-19 -19 -30 -21 -100 -17 -115 5 -112 -1 -119 225 -6 191 -12 223 -47 239 -10
4 -102 10 -206 14 -157 5 -190 9 -204 23 -12 12 -19 41 -23 107 -3 65 -9 93
-20 100 -18 11 -170 13 -187 2 -25 -16 -33 -69 -33 -221 0 -168 9 -214 44
-234 13 -7 91 -14 209 -17 226 -7 220 -4 225 -119 4 -70 2 -81 -17 -100 -18
-18 -33 -21 -105 -21 -109 0 -116 -6 -116 -106 0 -42 5 -84 10 -94 17 -32 77
-40 320 -41 287 -1 346 -7 371 -38 24 -29 26 -117 4 -148 -29 -41 -87 -45
-725 -53 -624 -7 -656 -9 -687 -48 -15 -19 -17 -150 -3 -172 7 -11 35 -17 100
-20 65 -4 95 -11 107 -23 14 -13 17 -48 22 -202 6 -182 7 -186 32 -211 14 -14
43 -29 65 -34 54 -13 520 -12 566 0 21 6 41 16 45 23 4 7 10 47 14 90 8 115 3
112 222 112 257 0 252 5 252 -235 0 -236 4 -232 -239 -240 -174 -5 -206 -12
-222 -47 -4 -10 -10 -92 -14 -183 -4 -101 -11 -174 -19 -188 -24 -44 -71 -55
-272 -60 -103 -2 -231 -1 -284 3 -131 10 -145 22 -145 129 0 100 -7 106 -116
106 -114 0 -124 10 -124 124 0 111 -5 116 -116 116 -114 0 -124 10 -124 120 0
110 10 120 124 120 111 0 116 5 116 115 0 125 5 123 -267 127 -212 4 -205 0
-213 128 -3 65 -9 93 -20 100 -8 5 -52 10 -97 10 -112 0 -123 11 -123 120 0
109 11 120 123 120 45 0 89 5 97 10 11 7 17 35 20 100 8 128 1 124 213 128
267 4 267 4 267 113 0 75 -9 102 -37 115 -10 4 -144 11 -298 14 -301 7 -340
14 -366 62 -8 15 -14 77 -16 173 -6 247 -5 245 -128 245 -110 0 -115 -5 -115
-116 0 -114 -10 -124 -120 -124 -109 0 -120 11 -120 120 0 109 11 120 123 120
45 0 89 5 97 10 11 7 17 35 20 100 4 65 11 95 23 107 13 14 48 17 202 22 182
6 186 7 211 32 37 38 43 81 45 319 1 356 6 370 128 370 36 0 71 4 78 8 25 16
33 69 33 232 0 163 -8 216 -33 232 -17 11 -169 9 -187 -2 -11 -7 -17 -35 -20
-100 -8 -129 -2 -125 -213 -125 -121 0 -179 4 -194 13 -37 21 -54 68 -65 176
-14 136 -5 669 12 714 15 41 42 52 125 52 88 0 95 9 95 120 0 115 -4 120 -116
120 -114 0 -124 10 -124 120 0 110 10 120 124 120 109 0 116 6 116 106 0 91
-9 110 -58 124 -49 13 -555 13 -604 0 -49 -14 -58 -33 -58 -124 0 -100 7 -106
116 -106 114 0 124 -10 124 -120 0 -67 -3 -83 -20 -100 -17 -17 -33 -20 -100
-20 -110 0 -120 10 -120 124 0 111 -5 116 -113 116 -45 0 -87 -4 -94 -8 -25
-16 -33 -69 -33 -221 0 -168 9 -214 44 -234 13 -7 91 -14 209 -17 226 -7 220
-4 225 -119 4 -70 2 -81 -17 -100 -18 -18 -33 -21 -100 -21 -120 0 -119 4
-123 -267 -4 -212 0 -205 -128 -213 -65 -3 -93 -9 -100 -20 -13 -19 -13 -181
0 -200 7 -11 35 -17 100 -20 131 -8 125 2 125 -240 0 -242 6 -232 -125 -240
-65 -3 -93 -9 -100 -20 -5 -8 -10 -54 -10 -102 0 -111 6 -118 105 -118 129 0
133 -13 133 -360 0 -339 -7 -360 -118 -360 -113 0 -118 17 -119 390 -1 243 -9
303 -41 320 -10 5 -50 10 -89 10 -109 0 -109 0 -113 -267 -4 -210 -2 -206
-117 -211 -70 -4 -81 -2 -100 17 -18 18 -21 33 -21 105 0 111 -5 116 -116 116
-114 0 -124 10 -124 120 0 107 12 120 111 120 86 0 105 9 119 58 13 49 13 555
0 604 -14 49 -33 58 -119 58 -97 0 -111 14 -111 111 0 75 -9 102 -37 115 -10
4 -139 10 -288 14 -405 9 -386 -10 -395 395 -4 149 -10 278 -14 288 -13 28
-40 37 -115 37 -99 0 -111 13 -111 119 0 120 4 119 -267 123 -210 4 -206 2
-211 117 -4 70 -2 81 17 100 18 18 33 21 105 21 111 0 116 5 116 116 0 111 11
124 111 124 39 0 79 5 89 10 32 17 40 77 41 320 1 378 5 390 128 390 75 0 86
5 100 43 15 38 14 355 0 396 -12 35 -22 38 -122 44 -103 5 -102 4 -102 210 0
95 3 184 8 199 15 56 42 63 244 63 223 0 215 5 223 -125 3 -65 9 -93 20 -100
8 -5 52 -10 97 -10 123 0 127 7 121 254 -3 152 -4 156 -29 181 -38 38 -81 44
-319 46 -358 1 -370 6 -370 130 0 97 13 109 123 109 45 0 89 5 97 10 11 7 17
35 20 100 8 131 -2 125 240 125 242 0 232 6 240 -125 3 -65 9 -93 20 -100 8
-5 43 -10 77 -10 81 0 108 -11 123 -52 9 -23 15 -150 19 -413 10 -517 -6 -487
262 -496 149 -4 183 -8 196 -22 12 -12 19 -42 23 -107 3 -65 9 -93 20 -100 20
-13 156 -13 180 0 32 17 40 76 40 285 1 320 15 370 113 401 41 13 121 18 377
24 222 5 336 11 360 20 51 19 87 56 99 105 14 56 14 487 1 537 -14 49 -33 58
-119 58 -63 0 -82 -6 -102 -33 -1 -1 -5 -86 -8 -188 -7 -203 -15 -231 -69
-246 -15 -5 -104 -8 -199 -8 -211 0 -205 -4 -213 125 -3 65 -9 93 -20 100 -8
5 -54 10 -102 10 -113 0 -118 -5 -118 -116 0 -114 -10 -124 -124 -124 -111 0
-116 -5 -116 -116 0 -111 -11 -124 -109 -124 -125 0 -129 10 -130 390 -1 243
-9 303 -41 320 -10 5 -50 10 -89 10 -97 0 -111 14 -111 111 0 75 -9 102 -37
115 -10 4 -144 11 -298 14 -301 7 -340 14 -366 62 -8 14 -15 86 -19 188 -6
167 -13 200 -47 216 -10 4 -102 10 -206 14 -157 5 -190 9 -204 23 -12 12 -19
41 -23 107 -3 65 -9 93 -20 100 -8 5 -54 10 -102 10 -113 0 -118 -5 -118 -116
0 -114 -10 -124 -120 -124 -109 0 -120 11 -120 120 0 110 10 120 124 120 111
0 116 5 116 118 0 48 -5 94 -10 102 -7 11 -35 17 -100 20 -129 8 -125 2 -125
213 0 95 3 184 8 199 15 54 43 62 246 69 102 3 187 7 188 8 28 21 33 39 33
112 0 106 12 119 111 119 75 0 102 9 115 37 4 10 11 144 14 298 7 301 13 339
62 367 17 9 71 13 200 13 217 0 210 4 218 -125 3 -65 9 -93 20 -100 8 -5 47
-10 86 -10 129 0 132 -9 133 -390 1 -245 9 -303 42 -320 10 -6 49 -10 86 -8
59 3 68 6 87 31 20 27 21 42 27 435 7 434 10 465 56 483 13 5 53 9 88 9 86 0
95 10 95 106 0 42 -5 84 -10 94 -17 32 -77 40 -320 41 -373 1 -390 6 -390 119
0 113 17 118 390 119 243 1 303 9 320 41 5 10 10 50 10 89 0 99 13 111 120
111 67 0 83 -3 100 -20z m7200 0 c17 -17 20 -33 20 -100 0 -110 -10 -120 -124
-120 -111 0 -116 -5 -116 -118 0 -48 5 -94 10 -102 7 -11 35 -17 100 -20 131
-8 125 2 125 -240 0 -242 4 -235 -115 -235 -116 0 -114 -4 -118 208 -4 272 -2
267 -127 267 -110 0 -115 -5 -115 -116 0 -114 -10 -124 -120 -124 -67 0 -83 3
-100 20 -17 17 -20 33 -20 100 0 110 10 120 124 120 111 0 116 5 116 116 0
114 10 124 124 124 64 0 88 4 100 16 12 12 16 36 16 100 0 114 10 124 120 124
67 0 83 -3 100 -20z m-960 -240 c17 -17 20 -33 20 -100 0 -67 -3 -83 -20 -100
-17 -17 -33 -20 -100 -20 -67 0 -83 3 -100 20 -17 17 -20 33 -20 100 0 67 3
83 20 100 17 17 33 20 100 20 67 0 83 -3 100 -20z m-1920 -240 c17 -17 20 -33
20 -99 0 -120 -4 -119 267 -123 207 -4 205 -3 211 -107 4 -63 2 -72 -20 -94
-22 -22 -38 -26 -123 -32 -53 -4 -181 -5 -284 -3 -201 5 -248 16 -272 60 -15
28 -24 282 -12 348 11 56 35 70 126 70 54 0 71 -4 87 -20z m-1265 -486 c27
-13 47 -32 60 -59 18 -37 20 -60 20 -275 0 -215 -2 -238 -20 -275 -13 -27 -33
-47 -60 -60 -37 -18 -60 -20 -275 -20 -215 0 -238 2 -275 20 -27 13 -47 33
-60 60 -18 37 -20 60 -20 275 0 363 -2 361 390 356 175 -2 205 -4 240 -22z
m1505 -234 c17 -17 20 -33 20 -100 0 -67 -3 -83 -20 -100 -17 -17 -33 -20
-100 -20 -67 0 -83 3 -100 20 -17 17 -20 33 -20 100 0 67 3 83 20 100 17 17
33 20 100 20 67 0 83 -3 100 -20z m-7923 -723 c15 -15 18 -41 21 -190 4 -267
4 -267 112 -267 123 0 128 -15 128 -360 0 -345 -5 -360 -129 -360 -97 0 -109
13 -109 123 0 45 -5 89 -10 97 -7 11 -35 17 -100 20 -128 8 -124 1 -128 213
-4 271 -3 267 -123 267 -108 0 -119 11 -119 120 0 110 10 120 124 120 111 0
116 5 116 116 0 72 3 87 21 105 19 19 30 21 100 17 58 -2 83 -8 96 -21z m963
3 c17 -17 20 -33 20 -100 0 -109 -11 -120 -120 -120 -109 0 -120 11 -120 120
0 109 11 120 120 120 67 0 83 -3 100 -20z m-2 -483 c12 -13 18 -39 20 -96 4
-70 2 -81 -17 -100 -18 -18 -33 -21 -105 -21 -111 0 -116 -5 -116 -115 0 -78
5 -95 33 -116 1 -1 86 -5 188 -8 203 -7 231 -15 246 -69 5 -15 8 -104 8 -199
0 -211 4 -205 -125 -213 -65 -3 -93 -9 -100 -20 -11 -18 -13 -170 -2 -187 16
-25 69 -33 221 -33 168 0 214 9 234 44 7 13 14 91 17 209 7 219 7 218 100 225
75 5 104 -11 122 -70 18 -62 18 -994 0 -1056 -18 -59 -47 -75 -122 -70 -93 7
-93 6 -100 225 -3 118 -10 196 -17 209 -20 35 -66 44 -234 44 -152 0 -205 -8
-221 -33 -11 -17 -9 -169 2 -187 7 -11 35 -17 100 -20 129 -8 125 -1 125 -218
0 -198 -4 -214 -63 -239 -44 -19 -352 -30 -507 -18 -85 6 -101 10 -123 32 -22
22 -24 31 -20 94 6 104 4 103 211 107 267 4 267 4 267 113 0 39 -5 79 -10 89
-17 32 -77 40 -320 41 -373 1 -390 6 -390 119 0 113 17 118 390 119 243 1 303
9 320 41 5 10 10 50 10 89 0 107 -4 108 -236 113 -159 4 -185 13 -211 75 -25
61 -35 271 -30 623 8 509 4 502 290 497 124 -3 150 -6 165 -20z m11042 -1197
c17 -17 20 -33 20 -100 0 -67 -3 -83 -20 -100 -17 -17 -33 -20 -100 -20 -67 0
-83 3 -100 20 -17 17 -20 33 -20 100 0 67 3 83 20 100 17 17 33 20 100 20 67
0 83 -3 100 -20z m-12240 -480 c17 -17 20 -33 20 -100 0 -109 -11 -120 -120
-120 -109 0 -120 11 -120 120 0 109 11 120 120 120 67 0 83 -3 100 -20z
m12240 0 c17 -17 20 -33 20 -100 0 -67 -3 -83 -20 -100 -17 -17 -33 -20 -100
-20 -67 0 -83 3 -100 20 -17 17 -20 33 -20 100 0 67 3 83 20 100 17 17 33 20
100 20 67 0 83 -3 100 -20z m-12004 -482 c12 -11 19 -41 23 -90 4 -40 10 -78
13 -84 4 -6 29 -17 55 -25 39 -11 167 -14 653 -14 638 0 688 3 710 46 6 10 10
47 10 83 0 93 14 106 120 106 67 0 83 -3 100 -20 17 -17 20 -33 20 -100 0
-108 -11 -120 -117 -120 -43 0 -83 -4 -90 -8 -25 -16 -33 -69 -33 -232 0 -163
8 -216 33 -232 7 -4 47 -8 90 -8 106 0 117 -12 117 -120 0 -109 -11 -120 -120
-120 -110 0 -120 10 -120 124 0 112 -5 116 -120 116 -113 0 -120 -6 -120 -105
0 -129 -13 -133 -360 -133 -347 0 -360 4 -360 133 0 99 -7 105 -116 105 -114
0 -124 10 -124 124 0 111 -5 116 -116 116 -113 0 -124 10 -124 119 0 120 4
119 -267 123 -207 4 -206 4 -211 106 -4 84 11 115 58 124 19 3 113 6 207 5
147 -2 175 -5 189 -19z m1172 -1198 c37 -14 52 -42 52 -100 0 -58 -15 -86 -52
-100 -23 -9 -152 -14 -440 -19 -490 -7 -460 1 -468 -130 -6 -104 -14 -111
-122 -111 -107 0 -118 11 -118 120 0 110 10 120 124 120 107 0 116 8 116 95 0
74 11 109 37 120 42 18 168 23 493 21 248 -2 354 -7 378 -16z m-33 -486 c27
-13 47 -32 60 -59 18 -37 20 -60 20 -275 0 -215 -2 -238 -20 -275 -13 -27 -33
-47 -60 -60 -37 -18 -60 -20 -275 -20 -215 0 -238 2 -275 20 -27 13 -47 33
-60 60 -18 37 -20 60 -20 275 0 363 -2 361 390 356 175 -2 205 -4 240 -22z
m10560 0 c27 -13 47 -32 60 -59 18 -37 20 -60 20 -275 0 -215 -2 -238 -20
-275 -13 -27 -33 -47 -60 -60 -37 -18 -60 -20 -275 -20 -215 0 -238 2 -275 20
-27 13 -47 33 -60 60 -18 37 -20 60 -20 275 0 363 -2 361 390 356 175 -2 205
-4 240 -22z m-10015 -234 c17 -17 20 -33 20 -104 0 -107 8 -116 95 -116 35 0
75 -4 88 -9 46 -18 49 -49 56 -483 7 -490 -1 -460 130 -468 100 -6 111 -16
111 -105 0 -132 10 -130 -720 -130 -732 0 -720 -2 -720 132 0 91 15 103 124
103 112 0 116 5 116 120 0 115 -4 120 -116 120 -114 0 -124 10 -124 120 0 109
11 120 120 120 109 0 120 -11 120 -119 0 -121 8 -124 247 -119 235 5 225 -17
234 493 7 399 11 438 53 455 11 5 49 9 84 9 49 1 66 -3 82 -19z m960 -960 c17
-17 20 -33 20 -104 0 -111 5 -116 116 -116 72 0 87 -3 105 -21 19 -19 21 -30
17 -100 -5 -116 -1 -114 -211 -114 -95 0 -184 3 -199 8 -53 14 -63 46 -66 207
-4 178 4 230 38 247 14 7 55 13 93 13 54 0 71 -4 87 -20z m1893 -243 c15 -9
30 -30 34 -45 5 -15 8 -104 8 -199 0 -210 2 -206 -114 -211 -70 -4 -81 -2
-100 17 -18 18 -21 33 -21 105 0 111 -5 116 -116 116 -111 0 -124 12 -124 108
0 85 15 115 60 124 19 3 105 6 190 5 130 -2 160 -5 183 -20z m5547 -717 c17
-17 20 -33 20 -100 0 -67 -3 -83 -20 -100 -17 -17 -33 -20 -100 -20 -67 0 -83
3 -100 20 -17 17 -20 33 -20 100 0 67 3 83 20 100 17 17 33 20 100 20 67 0 83
-3 100 -20z m0 -480 c17 -17 20 -33 20 -100 0 -109 -11 -120 -120 -120 -109 0
-120 11 -120 120 0 67 3 83 20 100 17 17 33 20 100 20 67 0 83 -3 100 -20z
m-9600 -480 c17 -17 20 -33 20 -100 0 -67 -3 -83 -20 -100 -17 -17 -33 -20
-100 -20 -67 0 -83 3 -100 20 -17 17 -20 33 -20 100 0 67 3 83 20 100 17 17
33 20 100 20 67 0 83 -3 100 -20z m1437 -3 c14 -14 18 -35 18 -97 0 -119 7
-115 -235 -115 -237 0 -233 -2 -238 103 -4 84 11 115 58 124 19 3 113 6 207 5
150 -2 175 -5 190 -20z m10323 3 c17 -17 20 -33 20 -100 0 -109 -11 -120 -120
-120 -109 0 -120 11 -120 120 0 109 11 120 120 120 67 0 83 -3 100 -20z
m-6240 -480 c17 -17 20 -33 20 -100 0 -109 -11 -120 -120 -120 -109 0 -120 11
-120 120 0 109 11 120 120 120 67 0 83 -3 100 -20z m-5523 -963 c14 -14 18
-35 18 -97 0 -119 7 -115 -235 -115 -237 0 -233 -2 -238 103 -4 84 11 115 58
124 19 3 113 6 207 5 150 -2 175 -5 190 -20z m11043 -237 c17 -17 20 -33 20
-100 0 -109 -11 -120 -120 -120 -109 0 -120 11 -120 120 0 109 11 120 120 120
67 0 83 -3 100 -20z m-6037 -229 c48 -19 52 -53 52 -471 0 -418 -4 -452 -52
-471 -13 -5 -53 -9 -88 -9 -87 0 -95 -9 -95 -116 0 -114 -10 -124 -120 -124
-109 0 -120 11 -120 120 0 110 10 120 124 120 112 0 116 5 116 120 0 115 -4
120 -116 120 -113 0 -124 10 -124 119 0 120 4 119 -267 123 -206 4 -205 4
-211 106 -7 125 6 130 388 131 243 1 303 9 320 41 5 10 10 50 10 89 0 94 16
111 99 111 33 0 71 -4 84 -9z m1717 -11 c17 -17 20 -33 20 -100 0 -109 -11
-120 -120 -120 -109 0 -120 11 -120 120 0 109 11 120 120 120 67 0 83 -3 100
-20z m-4320 -240 c17 -17 20 -33 20 -100 0 -67 -3 -83 -20 -100 -17 -17 -33
-20 -100 -20 -67 0 -83 3 -100 20 -17 17 -20 33 -20 100 0 67 3 83 20 100 17
17 33 20 100 20 67 0 83 -3 100 -20z m3535 -6 c27 -13 47 -32 60 -59 18 -37
20 -60 20 -275 0 -215 -2 -238 -20 -275 -13 -27 -33 -47 -60 -60 -37 -18 -60
-20 -275 -20 -215 0 -238 2 -275 20 -27 13 -47 33 -60 60 -18 37 -20 60 -20
275 0 363 -2 361 390 356 175 -2 205 -4 240 -22z m1505 6 c17 -17 20 -33 20
-100 0 -109 -11 -120 -120 -120 -109 0 -120 11 -120 120 0 109 11 120 120 120
67 0 83 -3 100 -20z m3775 -6 c27 -13 47 -32 60 -59 18 -37 20 -60 20 -275 0
-215 -2 -238 -20 -275 -13 -27 -33 -47 -60 -60 -37 -18 -60 -20 -275 -20 -215
0 -238 2 -275 20 -27 13 -47 33 -60 60 -18 37 -20 60 -20 275 0 363 -2 361
390 356 175 -2 205 -4 240 -22z m-4282 -237 c15 -9 30 -30 34 -45 5 -15 8
-104 8 -199 0 -210 2 -206 -114 -211 -70 -4 -81 -2 -100 17 -18 18 -21 33 -21
105 0 112 -5 116 -120 116 -115 0 -120 -4 -120 -116 0 -114 -10 -124 -120
-124 -109 0 -120 11 -120 120 0 110 10 120 124 120 109 0 116 7 116 103 0 90
14 120 60 129 19 3 105 6 190 5 130 -2 160 -5 183 -20z m968 4 c31 -25 37 -84
38 -371 1 -243 9 -303 41 -320 10 -5 50 -10 89 -10 97 0 111 -14 111 -110 0
-102 -16 -116 -145 -125 -155 -12 -463 -1 -507 18 -59 25 -63 41 -63 239 0
212 -1 210 102 215 100 6 110 9 122 44 6 18 11 100 12 183 0 189 6 227 39 243
39 20 133 16 161 -6z m496 -4 c14 -14 18 -47 23 -204 4 -104 10 -196 14 -206
16 -35 48 -41 239 -47 157 -5 190 -9 204 -23 12 -12 19 -41 23 -106 3 -49 9
-93 13 -98 5 -4 49 -10 98 -13 129 -8 124 2 124 -240 0 -242 6 -232 -125 -240
-65 -3 -93 -9 -100 -20 -5 -8 -10 -52 -10 -97 0 -112 -11 -123 -120 -123 -109
0 -120 11 -120 120 0 110 10 120 124 120 112 0 116 5 116 120 0 115 -4 120
-116 120 -114 0 -124 10 -124 124 0 111 -5 116 -116 116 -114 0 -124 10 -124
123 0 45 -5 89 -10 97 -7 11 -35 17 -100 20 -127 8 -124 3 -128 203 -4 195 4
246 38 265 36 18 155 11 177 -11z m-5997 -237 c17 -17 20 -33 20 -99 0 -120
-4 -119 267 -123 212 -4 205 0 213 -128 3 -65 9 -93 20 -100 8 -5 52 -10 98
-10 111 0 122 -11 122 -120 0 -110 -10 -120 -124 -120 -111 0 -116 -5 -116
-116 0 -114 -10 -124 -120 -124 -110 0 -120 10 -120 124 0 111 -5 116 -116
116 -114 0 -124 10 -124 123 0 45 -5 89 -10 97 -7 11 -35 17 -100 20 -127 8
-124 3 -128 203 -2 89 1 182 5 207 11 56 34 70 126 70 54 0 71 -4 87 -20z
m1920 -240 c17 -17 20 -33 20 -100 0 -110 -10 -120 -124 -120 -111 0 -116 -5
-116 -116 0 -114 -10 -124 -120 -124 -109 0 -120 11 -120 120 0 110 10 120
124 120 111 0 116 5 116 116 0 114 10 124 120 124 67 0 83 -3 100 -20z m6000
0 c17 -17 20 -33 20 -100 0 -109 -11 -120 -120 -120 -109 0 -120 11 -120 120
0 109 11 120 120 120 67 0 83 -3 100 -20z m-8476 -469 c80 -10 96 -30 96 -122
0 -97 -13 -109 -122 -109 -46 0 -90 -5 -98 -10 -11 -7 -17 -35 -20 -100 -8
-130 0 -125 -223 -125 -257 0 -252 -4 -252 230 0 77 3 152 8 167 10 37 45 58
109 68 68 10 425 11 502 1z"/>
<path d="M6276 13924 c-12 -12 -16 -37 -16 -104 0 -116 4 -120 120 -120 116 0
120 4 120 120 0 116 -4 120 -120 120 -67 0 -92 -4 -104 -16z"/>
<path d="M5556 13684 c-12 -12 -16 -37 -16 -104 0 -116 4 -120 120 -120 116 0
120 4 120 120 0 116 -4 120 -120 120 -67 0 -92 -4 -104 -16z"/>
<path d="M4596 13444 c-12 -12 -16 -37 -16 -104 0 -116 4 -120 120 -120 116 0
120 4 120 120 0 116 -4 120 -120 120 -67 0 -92 -4 -104 -16z"/>
<path d="M6058 13449 c-30 -17 -38 -79 -39 -319 -1 -380 -5 -390 -130 -390
-98 0 -109 13 -109 124 0 112 -5 116 -120 116 -116 0 -120 -4 -120 -120 0
-115 4 -120 116 -120 114 0 124 -10 124 -124 0 -112 5 -116 120 -116 115 0
120 4 120 116 0 114 10 124 124 124 111 0 116 5 116 116 0 114 10 124 120 124
110 0 120 -10 120 -124 0 -112 5 -116 120 -116 116 0 120 4 120 120 0 115 -4
120 -116 120 -114 0 -124 10 -124 124 0 111 -5 116 -116 116 -114 0 -124 10
-124 124 0 110 -6 116 -108 116 -42 0 -85 -5 -94 -11z"/>
<path d="M3646 13205 c-21 -22 -25 -55 -28 -252 -4 -212 0 -205 -128 -213 -65
-3 -93 -9 -100 -20 -5 -8 -10 -52 -10 -97 0 -113 -10 -123 -124 -123 -111 0
-116 -5 -116 -115 0 -123 -2 -122 245 -128 96 -2 158 -8 173 -16 48 -26 55
-65 62 -366 3 -154 10 -288 14 -298 13 -28 40 -37 115 -37 109 0 109 0 113
267 4 210 2 206 117 211 70 4 81 2 100 -17 18 -18 21 -33 21 -105 0 -111 5
-116 116 -116 114 0 124 -10 124 -120 0 -110 -10 -120 -124 -120 -112 0 -116
-5 -116 -120 0 -116 4 -120 120 -120 115 0 120 4 120 116 0 114 10 124 120
124 110 0 120 -10 120 -124 0 -112 5 -116 120 -116 115 0 120 4 120 116 0 72
3 87 21 105 19 19 30 21 100 17 115 -5 113 -1 117 -211 4 -271 3 -267 123
-267 107 0 119 -11 119 -117 0 -43 4 -83 8 -90 16 -25 69 -33 223 -33 247 0
249 2 249 240 0 157 -9 203 -44 223 -13 7 -91 14 -209 17 -157 5 -190 9 -204
23 -12 12 -19 41 -23 107 -3 65 -9 93 -20 100 -8 5 -52 10 -97 10 -71 0 -86 3
-104 21 -19 19 -21 30 -17 100 5 114 -1 111 223 118 182 6 186 7 211 32 14 14
29 43 34 65 13 54 12 520 0 566 -6 21 -19 42 -30 48 -24 13 -160 13 -180 0
-11 -7 -17 -35 -20 -100 -8 -128 -1 -124 -213 -128 -271 -4 -267 -3 -267 -123
0 -109 -11 -119 -124 -119 -111 0 -116 -5 -116 -116 0 -114 -10 -124 -120
-124 -109 0 -120 11 -120 123 0 45 -5 89 -10 97 -7 11 -35 17 -100 20 -128 8
-124 1 -128 213 -4 267 -4 267 -112 267 -124 0 -128 11 -129 390 -1 243 -9
303 -41 320 -31 16 -156 13 -174 -5z m194 -725 c17 -17 20 -33 20 -100 0 -109
-11 -120 -120 -120 -109 0 -120 11 -120 120 0 109 11 120 120 120 67 0 83 -3
100 -20z m1200 -480 c17 -17 20 -33 20 -100 0 -109 -11 -120 -120 -120 -109 0
-120 11 -120 120 0 109 11 120 120 120 67 0 83 -3 100 -20z"/>
<path d="M4596 12964 c-12 -12 -16 -37 -16 -104 0 -115 4 -120 116 -120 114 0
124 -10 124 -124 0 -112 5 -116 120 -116 116 0 120 4 120 120 0 115 -4 120
-116 120 -71 0 -87 3 -104 20 -17 17 -20 33 -20 104 0 112 -5 116 -120 116
-67 0 -92 -4 -104 -16z"/>
<path d="M8436 12964 c-12 -12 -16 -37 -16 -104 0 -116 4 -120 120 -120 116 0
120 4 120 120 0 116 -4 120 -120 120 -67 0 -92 -4 -104 -16z"/>
<path d="M4356 12484 c-12 -12 -16 -37 -16 -104 0 -116 4 -120 120 -120 116 0
120 4 120 120 0 116 -4 120 -120 120 -67 0 -92 -4 -104 -16z"/>
<path d="M9646 12485 c-21 -22 -25 -55 -28 -252 -4 -211 0 -205 -127 -213 -49
-3 -93 -9 -98 -13 -4 -5 -10 -49 -13 -98 -8 -127 -2 -123 -213 -127 -271 -4
-267 -3 -267 -123 0 -108 -11 -119 -119 -119 -120 0 -119 4 -123 -267 -4 -212
0 -205 -128 -213 -65 -3 -93 -9 -100 -20 -5 -8 -10 -52 -10 -97 0 -112 -11
-123 -120 -123 -110 0 -120 10 -120 124 0 111 -5 116 -116 116 -72 0 -87 3
-105 21 -19 19 -21 30 -17 100 5 115 1 113 211 117 270 4 267 3 267 120 0 87
-4 96 -43 111 -37 14 -357 14 -394 0 -39 -15 -43 -24 -43 -111 0 -108 -11
-118 -124 -118 -111 0 -116 -5 -116 -116 0 -114 -10 -124 -124 -124 -111 0
-116 -5 -116 -115 0 -125 -5 -123 267 -127 212 -4 205 0 213 -128 3 -65 9 -93
20 -100 8 -5 52 -10 98 -10 111 0 122 -11 122 -119 0 -120 -4 -119 267 -123
212 -4 208 -2 208 -118 0 -116 4 -114 -208 -118 -271 -4 -267 -3 -267 -123 0
-107 -11 -119 -117 -119 -43 0 -83 -4 -90 -8 -25 -16 -33 -69 -33 -232 0 -163
8 -216 33 -232 7 -4 47 -8 90 -8 107 0 117 -11 117 -124 0 -112 5 -116 120
-116 116 0 120 4 120 120 0 115 -4 120 -116 120 -114 0 -124 10 -124 120 0
109 11 120 123 120 45 0 89 5 97 10 11 7 17 35 20 100 8 129 2 125 213 125 95
0 184 -3 199 -8 53 -14 62 -44 68 -231 3 -105 10 -179 17 -192 20 -35 66 -44
223 -44 157 0 203 9 222 44 8 12 15 88 18 186 4 102 11 174 19 188 26 48 65
55 366 62 154 3 288 10 298 14 29 13 37 40 37 120 0 100 -7 106 -116 106 -72
0 -87 3 -105 21 -19 19 -21 30 -17 100 5 115 1 113 211 117 271 4 267 3 267
123 0 106 12 119 111 119 86 0 105 9 119 58 12 46 13 512 0 566 -5 22 -20 51
-34 65 -25 25 -29 26 -211 32 -153 5 -189 9 -202 22 -11 11 -18 42 -22 94 -4
43 -10 83 -14 90 -16 25 -89 33 -317 34 -380 1 -390 5 -390 130 0 98 13 109
124 109 111 0 116 5 116 116 0 113 10 124 118 124 42 0 82 4 89 8 25 16 33 69
33 232 0 163 -8 216 -33 232 -7 4 -47 8 -89 8 -56 0 -81 -4 -92 -15z m-286
-965 c17 -17 20 -33 20 -104 0 -111 5 -116 116 -116 111 0 124 -11 124 -111 0
-39 5 -79 10 -89 17 -32 77 -40 320 -41 287 -1 346 -7 371 -38 24 -29 26 -117
4 -148 -29 -41 -68 -45 -595 -52 -525 -8 -559 -11 -580 -51 -13 -24 -13 -126
0 -150 17 -32 77 -40 320 -41 380 -1 390 -5 390 -130 0 -98 -13 -109 -124
-109 -111 0 -116 -5 -116 -116 0 -114 -10 -124 -120 -124 -110 0 -120 10 -120
124 0 111 -5 116 -116 116 -113 0 -124 10 -124 119 0 73 -5 91 -33 112 -1 1
-86 5 -188 8 -203 7 -231 15 -246 69 -5 15 -8 104 -8 199 0 211 -4 205 125
213 65 3 93 9 100 20 5 8 10 52 10 98 0 112 10 122 124 122 111 0 116 5 116
116 0 114 10 124 120 124 67 0 83 -3 100 -20z"/>
<path d="M10356 11764 c-12 -12 -16 -37 -16 -104 0 -67 4 -92 16 -104 12 -12
37 -16 104 -16 67 0 92 4 104 16 12 12 16 37 16 104 0 67 -4 92 -16 104 -12
12 -37 16 -104 16 -67 0 -92 -4 -104 -16z"/>
<path d="M6036 11524 c-12 -12 -16 -37 -16 -104 0 -116 4 -120 120 -120 116 0
120 4 120 120 0 116 -4 120 -120 120 -67 0 -92 -4 -104 -16z"/>
<path d="M11098 11529 c-30 -17 -38 -79 -39 -319 -1 -382 -4 -390 -134 -390
-99 0 -105 -7 -105 -120 0 -115 4 -120 116 -120 71 0 87 -3 104 -20 17 -17 20
-33 20 -104 0 -111 5 -116 116 -116 114 0 124 -10 124 -120 0 -108 -11 -120
-117 -120 -43 0 -83 -4 -90 -8 -25 -16 -33 -69 -33 -232 0 -163 8 -216 33
-232 7 -4 47 -8 89 -8 117 0 116 -3 120 267 4 210 2 206 117 211 70 4 81 2
100 -17 18 -18 21 -33 21 -98 0 -88 4 -97 43 -112 38 -15 335 -14 377 0 51 18
60 53 60 238 0 154 -8 207 -33 223 -7 4 -47 8 -89 8 -107 0 -118 11 -118 123
0 45 -5 89 -10 97 -7 11 -35 17 -100 20 -131 8 -125 -2 -125 240 0 242 -6 232
125 240 65 3 93 9 100 20 5 8 10 52 10 97 0 123 4 121 -267 125 -212 4 -205 0
-213 128 -3 65 -9 93 -20 100 -20 13 -160 12 -182 -1z"/>
<path d="M10596 10324 c-12 -12 -16 -36 -16 -100 0 -114 -10 -124 -124 -124
-112 0 -116 -5 -116 -120 0 -115 4 -120 116 -120 114 0 124 -10 124 -124 0
-109 6 -116 106 -116 42 0 84 5 94 10 33 18 40 76 40 350 0 274 -7 332 -40
350 -31 17 -166 13 -184 -6z"/>
<path d="M3636 9844 c-12 -12 -16 -37 -16 -104 0 -116 4 -120 120 -120 116 0
120 4 120 120 0 116 -4 120 -120 120 -67 0 -92 -4 -104 -16z"/>
<path d="M4138 9609 c-10 -5 -22 -26 -28 -47 -13 -49 -13 -555 0 -604 14 -49
33 -58 119 -58 99 0 111 -13 111 -122 0 -46 5 -90 10 -98 7 -11 35 -17 100
-20 131 -8 125 2 125 -240 0 -242 6 -232 -125 -240 -65 -3 -93 -9 -100 -20 -5
-8 -10 -52 -10 -97 0 -110 -12 -123 -109 -123 -125 0 -129 10 -130 390 -1 228
-9 301 -34 317 -7 4 -47 10 -90 14 -113 8 -111 4 -115 212 -4 270 -3 267 -120
267 -42 0 -82 -4 -89 -8 -25 -16 -33 -69 -33 -232 0 -163 8 -216 33 -232 7 -4
47 -8 90 -8 106 0 117 -12 117 -120 0 -110 -10 -120 -124 -120 -111 0 -116 -5
-116 -116 0 -114 -10 -124 -124 -124 -112 0 -116 -5 -116 -120 0 -115 4 -120
116 -120 114 0 124 -10 124 -122 0 -46 5 -90 10 -98 7 -11 35 -17 100 -20 66
-4 95 -11 107 -23 14 -14 18 -47 23 -204 6 -191 12 -223 47 -239 10 -4 102
-10 206 -14 157 -5 190 -9 204 -23 12 -12 19 -41 23 -107 3 -65 9 -93 20 -100
8 -5 54 -10 102 -10 113 0 118 5 118 116 0 114 10 124 120 124 110 0 120 -10
120 -124 0 -112 5 -116 120 -116 116 0 120 4 120 118 0 48 -5 94 -10 102 -7
11 -35 17 -100 20 -66 4 -95 10 -107 23 -14 14 -18 47 -23 214 -4 109 -10 206
-14 216 -10 20 -28 25 -119 30 -103 5 -102 4 -102 210 0 95 3 184 8 199 15 54
43 62 246 69 102 3 187 7 188 8 28 21 33 39 33 112 0 109 11 119 124 119 112
0 116 5 116 120 0 115 -4 120 -116 120 -114 0 -124 10 -124 120 0 109 11 120
119 120 120 0 119 -4 123 267 4 212 0 205 128 213 65 3 93 9 100 20 5 8 10 54
10 102 0 114 -4 118 -120 118 -115 0 -120 -4 -120 -116 0 -114 -10 -124 -124
-124 -111 0 -116 -5 -116 -116 0 -114 -10 -124 -124 -124 -111 0 -116 -5 -116
-116 0 -72 -3 -87 -21 -105 -19 -19 -30 -21 -100 -17 -115 5 -113 1 -117 211
-4 271 -3 267 -123 267 -109 0 -119 11 -119 124 0 110 -6 116 -108 116 -42 0
-85 -5 -94 -11z m902 -969 c17 -17 20 -33 20 -100 0 -109 -11 -120 -120 -120
-109 0 -120 11 -120 120 0 109 11 120 120 120 67 0 83 -3 100 -20z m-720 -960
c17 -17 20 -33 20 -104 0 -111 5 -116 116 -116 114 0 124 -10 124 -120 0 -109
-11 -120 -120 -120 -110 0 -120 10 -120 124 0 111 -5 116 -116 116 -114 0
-124 10 -124 120 0 109 11 120 120 120 67 0 83 -3 100 -20z"/>
<path d="M9636 9604 c-12 -12 -16 -37 -16 -104 0 -67 4 -92 16 -104 12 -12 37
-16 104 -16 67 0 92 4 104 16 12 12 16 37 16 104 0 67 -4 92 -16 104 -12 12
-37 16 -104 16 -67 0 -92 -4 -104 -16z"/>
<path d="M9156 9124 c-12 -12 -16 -37 -16 -104 0 -67 4 -92 16 -104 12 -12 37
-16 104 -16 67 0 92 4 104 16 12 12 16 37 16 104 0 67 -4 92 -16 104 -12 12
-37 16 -104 16 -67 0 -92 -4 -104 -16z"/>
<path d="M6520 8890 c-11 -7 -17 -35 -20 -100 -8 -128 -1 -124 -213 -128 -267
-4 -267 -4 -267 -113 0 -86 9 -105 58 -119 46 -12 512 -13 566 0 22 5 51 20
65 35 25 25 26 29 29 181 6 247 2 254 -121 254 -45 0 -89 -5 -97 -10z"/>
<path d="M7236 8884 c-12 -12 -16 -36 -16 -100 0 -111 -12 -124 -108 -124 -78
0 -92 -9 -112 -75 -10 -30 -15 -256 -20 -865 -5 -454 -11 -834 -13 -845 -3
-11 -9 -37 -12 -58 -10 -61 -33 -77 -114 -77 -94 0 -101 -8 -101 -116 0 -114
-10 -124 -124 -124 -111 0 -116 -5 -116 -118 0 -48 5 -94 10 -102 7 -11 35
-17 100 -20 66 -4 95 -11 107 -23 14 -14 18 -47 23 -204 3 -118 10 -196 17
-209 20 -35 66 -44 234 -44 152 0 205 8 221 33 4 7 8 47 8 90 0 106 12 117
120 117 110 0 120 -10 120 -124 0 -111 5 -116 115 -116 125 0 128 6 123 247
-5 235 17 225 -493 233 -434 8 -448 10 -461 75 -9 51 1 124 20 143 13 14 46
17 189 20 271 4 267 3 267 123 0 108 11 119 120 119 110 0 120 -10 120 -124 0
-112 5 -116 120 -116 115 0 120 4 120 116 0 114 10 124 120 124 110 0 120 -10
120 -124 0 -112 5 -116 120 -116 116 0 120 4 120 120 0 115 -4 120 -116 120
-72 0 -87 3 -105 21 -19 19 -21 30 -17 100 5 115 1 113 211 117 272 4 267 2
267 127 0 110 -5 115 -116 115 -111 0 -124 11 -124 109 0 124 15 129 360 129
347 0 360 -4 360 -133 0 -99 7 -105 116 -105 114 0 124 -10 124 -120 0 -110
-10 -120 -124 -120 -111 0 -116 -5 -116 -116 0 -113 -10 -124 -117 -124 -43 0
-83 -4 -90 -8 -25 -16 -33 -69 -33 -232 0 -163 8 -216 33 -232 7 -4 49 -8 94
-8 106 0 113 7 113 105 0 130 8 133 390 134 243 1 303 9 320 41 5 10 10 52 10
94 0 98 -8 106 -105 106 -129 0 -133 10 -134 370 -2 238 -8 281 -45 319 -25
25 -30 26 -195 31 -240 9 -236 4 -236 240 0 238 -7 232 254 241 102 3 187 7
188 8 28 21 33 39 33 109 0 42 -4 82 -8 89 -16 25 -69 33 -232 33 -163 0 -216
-8 -232 -33 -4 -7 -8 -47 -8 -89 0 -107 -12 -118 -120 -118 -110 0 -120 10
-120 124 0 111 -5 116 -115 116 -125 0 -123 5 -127 -267 -4 -212 -2 -208 -118
-208 -116 0 -113 -6 -120 222 -4 104 -10 196 -14 206 -16 35 -48 41 -239 47
-223 7 -219 6 -224 107 -5 91 -10 109 -30 119 -10 4 -107 10 -216 14 -237 7
-230 3 -235 119 -4 70 -2 81 17 100 18 18 33 21 105 21 112 0 116 5 116 120 0
67 -4 92 -16 104 -12 12 -37 16 -104 16 -67 0 -92 -4 -104 -16z m619 -970 c27
-13 47 -32 60 -59 18 -37 20 -60 20 -275 0 -215 -2 -238 -20 -275 -13 -27 -33
-47 -60 -60 -37 -18 -60 -20 -275 -20 -215 0 -238 2 -275 20 -27 13 -47 33
-60 60 -18 37 -20 60 -20 275 0 363 -2 361 390 356 175 -2 205 -4 240 -22z
m-175 -954 c17 -17 20 -33 20 -100 0 -67 -3 -83 -20 -100 -17 -17 -33 -20
-100 -20 -67 0 -83 3 -100 20 -17 17 -20 33 -20 100 0 67 3 83 20 100 17 17
33 20 100 20 67 0 83 -3 100 -20z"/>
<path d="M7476 7684 c-12 -12 -16 -37 -16 -104 0 -67 4 -92 16 -104 12 -12 37
-16 104 -16 67 0 92 4 104 16 12 12 16 37 16 104 0 67 -4 92 -16 104 -12 12
-37 16 -104 16 -67 0 -92 -4 -104 -16z"/>
<path d="M6075 8169 c-45 -13 -55 -34 -55 -120 0 -103 6 -109 116 -109 114 0
124 -10 124 -124 0 -112 5 -116 120 -116 115 0 120 4 120 116 0 114 10 124
124 124 109 0 116 6 116 106 0 91 -9 110 -58 124 -45 12 -564 12 -607 -1z"/>
<path d="M6276 7444 c-12 -12 -16 -37 -16 -104 0 -67 4 -92 16 -104 12 -12 37
-16 104 -16 67 0 92 4 104 16 12 12 16 37 16 104 0 67 -4 92 -16 104 -12 12
-37 16 -104 16 -67 0 -92 -4 -104 -16z"/>
<path d="M4836 6484 c-12 -12 -16 -37 -16 -104 0 -116 4 -120 120 -120 116 0
120 4 120 120 0 116 -4 120 -120 120 -67 0 -92 -4 -104 -16z"/>
<path d="M8206 6245 c-21 -22 -25 -55 -28 -252 -4 -212 0 -205 -128 -213 -65
-3 -93 -9 -100 -20 -5 -8 -10 -52 -10 -97 0 -123 7 -127 254 -121 152 3 156 4
181 29 15 14 30 43 35 65 13 54 12 520 0 566 -6 21 -19 42 -30 48 -31 16 -156
13 -174 -5z"/>
<path d="M9156 5524 c-12 -12 -16 -37 -16 -104 0 -67 4 -92 16 -104 12 -12 37
-16 104 -16 67 0 92 4 104 16 12 12 16 37 16 104 0 67 -4 92 -16 104 -12 12
-37 16 -104 16 -67 0 -92 -4 -104 -16z"/>
<path d="M6756 5284 c-12 -12 -16 -37 -16 -104 0 -115 4 -120 116 -120 114 0
124 -10 124 -124 0 -112 5 -116 120 -116 116 0 120 4 120 120 0 115 -4 120
-116 120 -114 0 -124 10 -124 124 0 112 -5 116 -120 116 -67 0 -92 -4 -104
-16z"/>
<path d="M6276 4564 c-12 -12 -16 -37 -16 -104 0 -116 4 -120 120 -120 116 0
120 4 120 120 0 67 -4 92 -16 104 -12 12 -37 16 -104 16 -67 0 -92 -4 -104
-16z"/>
<path d="M9396 4564 c-12 -12 -16 -37 -16 -104 0 -116 4 -120 120 -120 116 0
120 4 120 120 0 67 -4 92 -16 104 -12 12 -37 16 -104 16 -67 0 -92 -4 -104
-16z"/>
<path d="M9636 4084 c-12 -12 -16 -37 -16 -104 0 -116 4 -120 120 -120 116 0
120 4 120 120 0 67 -4 92 -16 104 -12 12 -37 16 -104 16 -67 0 -92 -4 -104
-16z"/>
<path d="M10600 4090 c-11 -7 -17 -35 -20 -100 -8 -128 -1 -124 -213 -128
-270 -4 -267 -3 -267 -122 0 -119 -3 -118 267 -122 210 -4 206 -2 211 -117 4
-70 2 -81 -17 -100 -18 -18 -33 -21 -105 -21 -112 0 -116 -5 -116 -120 0 -116
4 -120 120 -120 113 0 120 6 120 105 0 129 13 133 360 133 347 0 360 -4 360
-133 0 -99 7 -105 116 -105 114 0 124 -10 124 -124 0 -111 5 -116 113 -116 92
0 101 4 116 43 14 37 14 357 0 394 -15 39 -24 43 -111 43 -66 0 -81 3 -99 21
-19 19 -21 30 -17 100 5 118 -3 114 238 114 242 0 232 6 240 -125 3 -65 9 -93
20 -100 8 -5 54 -10 102 -10 114 0 118 4 118 120 0 115 -4 120 -116 120 -113
0 -124 10 -124 118 0 42 -4 82 -8 89 -16 25 -69 33 -232 33 -163 0 -216 -8
-232 -33 -4 -7 -8 -43 -8 -80 0 -99 -16 -113 -145 -122 -155 -12 -463 -1 -507
18 -55 23 -61 44 -65 212 -6 247 -5 245 -126 245 -45 0 -89 -5 -97 -10z"/>
<path d="M11076 4084 c-12 -12 -16 -37 -16 -104 0 -116 4 -120 120 -120 116 0
120 4 120 120 0 116 -4 120 -120 120 -67 0 -92 -4 -104 -16z"/>
<path d="M6756 3844 c-12 -12 -16 -37 -16 -104 0 -115 4 -120 116 -120 114 0
124 -10 124 -124 0 -112 5 -116 120 -116 116 0 120 4 120 120 0 115 -4 120
-116 120 -114 0 -124 10 -124 124 0 112 -5 116 -120 116 -67 0 -92 -4 -104
-16z"/>
<path d="M9156 3844 c-12 -12 -16 -37 -16 -104 0 -115 4 -120 116 -120 114 0
124 -10 124 -124 0 -112 5 -116 120 -116 116 0 120 4 120 120 0 115 -4 120
-116 120 -114 0 -124 10 -124 124 0 112 -5 116 -120 116 -67 0 -92 -4 -104
-16z"/>
<path d="M11556 2644 c-12 -12 -16 -37 -16 -104 0 -116 4 -120 120 -120 116 0
120 4 120 120 0 116 -4 120 -120 120 -67 0 -92 -4 -104 -16z"/>
<path d="M7476 12964 c-12 -12 -16 -37 -16 -104 0 -116 4 -120 120 -120 116 0
120 4 120 120 0 116 -4 120 -120 120 -67 0 -92 -4 -104 -16z"/>
<path d="M2196 11044 c-12 -12 -16 -37 -16 -104 0 -116 4 -120 120 -120 116 0
120 4 120 120 0 116 -4 120 -120 120 -67 0 -92 -4 -104 -16z"/>
<path d="M1980 9129 c-36 -14 -40 -26 -40 -109 0 -85 4 -94 43 -109 37 -14
357 -14 394 0 39 15 43 24 43 109 0 85 -4 94 -43 109 -36 14 -363 13 -397 0z"/>
<path d="M2196 7684 c-12 -12 -16 -37 -16 -104 0 -116 4 -120 120 -120 116 0
120 4 120 120 0 116 -4 120 -120 120 -67 0 -92 -4 -104 -16z"/>
<path d="M12756 7684 c-12 -12 -16 -37 -16 -104 0 -116 4 -120 120 -120 116 0
120 4 120 120 0 116 -4 120 -120 120 -67 0 -92 -4 -104 -16z"/>
<path d="M2916 6724 c-12 -12 -16 -37 -16 -104 0 -116 4 -120 120 -120 116 0
120 4 120 120 0 116 -4 120 -120 120 -67 0 -92 -4 -104 -16z"/>
<path d="M7476 2404 c-12 -12 -16 -37 -16 -104 0 -116 4 -120 120 -120 116 0
120 4 120 120 0 116 -4 120 -120 120 -67 0 -92 -4 -104 -16z"/>
<path d="M12756 2404 c-12 -12 -16 -37 -16 -104 0 -116 4 -120 120 -120 116 0
120 4 120 120 0 116 -4 120 -120 120 -67 0 -92 -4 -104 -16z"/>
<path d="M13097 14410 c-190 -23 -278 -81 -317 -206 -36 -116 -42 -236 -38
-696 4 -407 6 -438 27 -513 38 -140 86 -188 226 -227 78 -22 93 -22 585 -22
492 0 507 0 585 22 140 39 188 87 227 227 22 78 22 93 22 585 0 492 0 507 -22
585 -39 140 -87 188 -227 227 -76 20 -102 22 -540 24 -253 1 -491 -2 -528 -6z
m797 -240 c156 -15 210 -42 247 -126 25 -56 39 -220 39 -464 0 -113 -5 -254
-10 -314 -15 -156 -46 -214 -132 -250 -115 -48 -801 -48 -916 0 -86 36 -117
94 -132 250 -13 140 -13 488 0 628 20 205 68 257 260 275 125 12 519 13 644 1z"/>
<path d="M13315 13922 c-41 -14 -54 -24 -70 -57 -18 -37 -20 -60 -20 -285 0
-225 2 -248 20 -285 32 -65 75 -74 335 -74 260 0 303 9 335 74 18 37 20 60 20
285 0 225 -2 248 -20 285 -32 65 -75 74 -335 74 -176 0 -224 -3 -265 -17z"/>
<path d="M13980 12489 c-13 -6 -28 -15 -32 -22 -10 -16 -10 -158 0 -174 16
-25 69 -33 232 -33 163 0 216 8 232 33 4 7 8 46 8 87 0 85 -4 94 -43 109 -36
14 -363 13 -397 0z"/>
<path d="M14196 10564 c-12 -12 -16 -37 -16 -104 0 -67 4 -92 16 -104 12 -12
37 -16 104 -16 67 0 92 4 104 16 12 12 16 37 16 104 0 67 -4 92 -16 104 -12
12 -37 16 -104 16 -67 0 -92 -4 -104 -16z"/>
<path d="M11556 8404 c-12 -12 -16 -37 -16 -104 0 -116 4 -120 120 -120 116 0
120 4 120 120 0 116 -4 120 -120 120 -67 0 -92 -4 -104 -16z"/>
<path d="M14196 8404 c-12 -12 -16 -37 -16 -104 0 -116 4 -120 120 -120 116 0
120 4 120 120 0 116 -4 120 -120 120 -67 0 -92 -4 -104 -16z"/>
<path d="M786 6001 c-38 -42 -40 -69 -44 -753 -3 -702 2 -832 36 -878 17 -22
27 -25 94 -28 101 -4 108 3 108 114 0 114 10 124 124 124 112 0 116 5 116 120
0 113 -6 120 -105 120 -129 0 -133 13 -133 360 0 347 4 360 133 360 99 0 105
7 105 120 0 115 -4 120 -116 120 -114 0 -124 10 -124 124 0 109 -7 116 -104
116 -58 0 -76 -4 -90 -19z"/>
<path d="M1476 5764 c-12 -12 -16 -37 -16 -104 0 -116 4 -120 120 -120 116 0
120 4 120 120 0 116 -4 120 -120 120 -67 0 -92 -4 -104 -16z"/>
<path d="M12293 5532 c-25 -16 -33 -69 -33 -232 0 -163 8 -216 33 -232 7 -4
46 -8 87 -8 41 0 80 4 87 8 25 16 33 69 33 232 0 163 -8 216 -33 232 -7 4 -46
8 -87 8 -41 0 -80 -4 -87 -8z"/>
<path d="M14196 5524 c-12 -12 -16 -37 -16 -104 0 -116 4 -120 120 -120 116 0
120 4 120 120 0 116 -4 120 -120 120 -67 0 -92 -4 -104 -16z"/>
<path d="M1236 5284 c-12 -12 -16 -37 -16 -104 0 -116 4 -120 120 -120 116 0
120 4 120 120 0 116 -4 120 -120 120 -67 0 -92 -4 -104 -16z"/>
<path d="M14196 4564 c-12 -12 -16 -37 -16 -104 0 -116 4 -120 120 -120 116 0
120 4 120 120 0 116 -4 120 -120 120 -67 0 -92 -4 -104 -16z"/>
<path d="M3876 4324 c-12 -12 -16 -37 -16 -104 0 -115 4 -120 116 -120 114 0
124 -10 124 -120 0 -110 -10 -120 -124 -120 -111 0 -116 -5 -116 -113 0 -92 4
-101 43 -116 38 -15 335 -14 377 0 51 18 60 53 60 238 0 154 -8 207 -33 223
-7 4 -47 8 -89 8 -108 0 -118 11 -118 124 0 112 -5 116 -120 116 -67 0 -92 -4
-104 -16z"/>
<path d="M996 4084 c-12 -12 -16 -37 -16 -104 0 -116 4 -120 120 -120 67 0 92
4 104 16 12 12 16 37 16 104 0 116 -4 120 -120 120 -67 0 -92 -4 -104 -16z"/>
<path d="M3406 4085 c-21 -22 -25 -55 -28 -252 -4 -212 0 -205 -128 -213 -65
-3 -93 -9 -100 -20 -5 -8 -10 -54 -10 -102 0 -114 4 -118 120 -118 115 0 120
4 120 116 0 113 10 124 118 124 42 0 82 4 89 8 25 16 33 69 33 232 0 163 -8
216 -33 232 -7 4 -47 8 -89 8 -56 0 -81 -4 -92 -15z"/>
<path d="M2676 3364 c-12 -12 -16 -37 -16 -104 0 -116 4 -120 120 -120 67 0
92 4 104 16 12 12 16 37 16 104 0 116 -4 120 -120 120 -67 0 -92 -4 -104 -16z"/>
<path d="M3876 3364 c-12 -12 -16 -37 -16 -104 0 -116 4 -120 120 -120 67 0
92 4 104 16 12 12 16 37 16 104 0 116 -4 120 -120 120 -67 0 -92 -4 -104 -16z"/>
<path d="M14196 2644 c-12 -12 -16 -37 -16 -104 0 -116 4 -120 120 -120 116 0
120 4 120 120 0 116 -4 120 -120 120 -67 0 -92 -4 -104 -16z"/>
<path d="M1097 2410 c-190 -23 -278 -81 -317 -206 -36 -116 -42 -236 -38 -696
4 -407 6 -438 27 -513 38 -140 86 -188 226 -227 78 -22 93 -22 585 -22 492 0
507 0 585 22 140 39 188 87 227 227 22 78 22 93 22 585 0 492 0 507 -22 585
-39 140 -87 188 -227 227 -76 20 -102 22 -540 24 -253 1 -491 -2 -528 -6z
m797 -240 c210 -20 256 -66 276 -276 13 -140 13 -488 0 -628 -15 -156 -46
-214 -132 -250 -115 -48 -801 -48 -916 0 -86 36 -117 94 -132 250 -13 140 -13
488 0 628 20 205 68 257 260 275 125 12 519 13 644 1z"/>
<path d="M1315 1922 c-41 -14 -54 -24 -70 -57 -18 -37 -20 -60 -20 -285 0
-225 2 -248 20 -285 32 -65 75 -74 335 -74 260 0 303 9 335 74 18 37 20 60 20
285 0 225 -2 248 -20 285 -32 65 -75 74 -335 74 -176 0 -224 -3 -265 -17z"/>
<path d="M3156 2164 c-12 -12 -16 -37 -16 -104 0 -116 4 -120 120 -120 116 0
120 4 120 120 0 116 -4 120 -120 120 -67 0 -92 -4 -104 -16z"/>
<path d="M6533 1212 c-25 -16 -33 -69 -33 -232 0 -163 8 -216 33 -232 16 -10
158 -10 174 0 25 16 33 69 33 232 0 163 -8 216 -33 232 -7 4 -46 8 -87 8 -41
0 -80 -4 -87 -8z"/>
<path d="M7020 1209 c-36 -15 -40 -26 -40 -116 0 -108 5 -113 116 -113 71 0
87 -3 104 -20 17 -17 20 -33 20 -104 0 -111 5 -116 113 -116 45 0 87 4 94 8
25 16 33 69 33 223 0 185 -9 220 -60 238 -41 14 -345 14 -380 0z"/>
<path d="M14196 1204 c-12 -12 -16 -37 -16 -104 0 -116 4 -120 120 -120 116 0
120 4 120 120 0 116 -4 120 -120 120 -67 0 -92 -4 -104 -16z"/>
<path d="M7740 969 c-13 -6 -28 -15 -32 -22 -10 -16 -10 -158 0 -174 16 -25
69 -33 232 -33 163 0 216 8 232 33 4 7 8 46 8 87 0 85 -4 94 -43 109 -36 14
-363 13 -397 0z"/>
<path d="M13476 964 c-12 -12 -16 -37 -16 -104 0 -116 4 -120 120 -120 116 0
120 4 120 120 0 116 -4 120 -120 120 -67 0 -92 -4 -104 -16z"/>
</g>
</g></svg>
