<svg width="51" height="52" viewBox="0 0 51 52" fill="none" xmlns="http://www.w3.org/2000/svg">
<path d="M41.5877 51H12.7451V1H50.0001V45.2708M41.5877 51L50.0001 45.2708M41.5877 51L42.1886 44.75L50.0001 45.2708" stroke="#FF2800" stroke-width="2" stroke-linecap="round" stroke-linejoin="round"/>
<rect x="17.8574" y="4.20157" width="27.381" height="3.20158" fill="#D9D9D9" stroke="#FF2800" stroke-width="2" stroke-linecap="round" stroke-linejoin="round"/>
<path d="M27.3809 12.7391H47.0238" stroke="#FF2800" stroke-width="2" stroke-linecap="round" stroke-linejoin="round"/>
<path d="M27.3809 17.0079H47.0238" stroke="#FF2800" stroke-width="2" stroke-linecap="round" stroke-linejoin="round"/>
<path d="M27.3809 21.2767H47.0238" stroke="#FF2800" stroke-width="2" stroke-linecap="round" stroke-linejoin="round"/>
<path d="M15.6855 28.2727H46.0778" stroke="#FF2800" stroke-width="2" stroke-linecap="round" stroke-linejoin="round"/>
<path d="M17.8574 30.8814L46.0788 30.996" stroke="#FF2800" stroke-width="2" stroke-linecap="round" stroke-linejoin="round"/>
<path d="M21.5684 33.7273L46.0782 33.7273" stroke="#FF2800" stroke-width="2" stroke-linecap="round" stroke-linejoin="round"/>
<path d="M22.5488 36.4546L46.0783 36.4546" stroke="#FF2800" stroke-width="2" stroke-linecap="round" stroke-linejoin="round"/>
<path d="M21.5684 39.1818L46.0782 39.1818" stroke="#FF2800" stroke-width="2" stroke-linecap="round" stroke-linejoin="round"/>
<path d="M20.5879 41.9091L46.0782 41.9091" stroke="#FF2800" stroke-width="2" stroke-linecap="round" stroke-linejoin="round"/>
<path d="M15.4776 16.5389L25.0015 16.5548" stroke="#FF2800" stroke-linecap="round" stroke-linejoin="round"/>
<path d="M19.0748 19.8468L19.0696 24.4712L17.8571 24.4691L17.8701 12.7391L20.7253 12.7439C21.5377 12.7453 22.1745 13.0739 22.6357 13.73C23.0969 14.3806 23.3269 15.2377 23.3257 16.3011C23.3245 17.3699 23.0926 18.2289 22.6299 18.878C22.1673 19.5271 21.5298 19.8509 20.7174 19.8496L19.0748 19.8468ZM19.0762 18.5901L20.7188 18.5928C21.1767 18.5936 21.5234 18.3793 21.7589 17.95C21.9943 17.5154 22.1124 16.9704 22.1131 16.3152C22.1138 15.6492 21.997 15.0985 21.7625 14.663C21.532 14.2222 21.1858 14.0015 20.7239 14.0007L19.0813 13.9979L19.0762 18.5901Z" fill="#FF2800"/>
<path d="M22.8096 35.6838C22.8096 40.5862 18.084 44.8222 11.9048 44.8222C5.72559 44.8222 1 40.5862 1 35.6838C1 30.7814 5.72559 26.5455 11.9048 26.5455C18.084 26.5455 22.8096 30.7814 22.8096 35.6838Z" fill="#E3B6B6" stroke="#FF2800" stroke-width="2"/>
<path d="M6.19043 33.5494L10.4762 30.8814L12.619 29.8142L14.7619 31.415L17.619 33.0158V35.6838V40.4861H6.19043V33.5494Z" fill="white"/>
<path d="M12.4148 29.8142L4.76172 33.9332" stroke="#FF2800" stroke-linecap="round" stroke-linejoin="round"/>
<path d="M12.415 29.8142L19.0477 33.9332" stroke="#FF2800" stroke-linecap="round" stroke-linejoin="round"/>
<path d="M4.76172 33.9333H6.29234V40.4862H17.5169V33.9333H19.0475" stroke="#FF2800" stroke-linecap="round" stroke-linejoin="round"/>
<path d="M14.2002 40.2989V35.431H9.6084V40.2989" stroke="url(#paint0_linear_742_664)" stroke-linecap="round" stroke-linejoin="round"/>
<defs>
<linearGradient id="paint0_linear_742_664" x1="9.6904" y1="37.5868" x2="14.2002" y2="37.5868" gradientUnits="userSpaceOnUse">
<stop stop-color="#FE0000"/>
<stop offset="1" stop-color="#D20101"/>
</linearGradient>
</defs>
</svg>
